<svg width="36" height="36" viewBox="0 0 36 36" fill="none" xmlns="http://www.w3.org/2000/svg">
<path d="M7.5 10.5H28.185C28.6041 10.5 29.0186 10.5879 29.4017 10.7579C29.7848 10.9279 30.128 11.1763 30.4093 11.487C30.6905 11.7978 30.9035 12.164 31.0345 12.5622C31.1656 12.9603 31.2117 13.3815 31.17 13.7985L30.27 22.7985C30.196 23.5388 29.8495 24.2251 29.2979 24.7243C28.7464 25.2235 28.029 25.5 27.285 25.5H12.96C12.2662 25.5003 11.5938 25.2601 11.0572 24.8203C10.5206 24.3805 10.153 23.7683 10.017 23.088L7.5 10.5Z" stroke="#022255" stroke-width="3" stroke-linejoin="round"/>
<path d="M7.5 10.5L6.285 5.6355C6.20374 5.31113 6.01643 5.02321 5.75281 4.81748C5.48919 4.61175 5.16439 4.50001 4.83 4.5H3M12 31.5H15M24 31.5H27" stroke="#022255" stroke-width="3" stroke-linecap="round" stroke-linejoin="round"/>
<circle cx="29" cy="7" r="7" fill="#25CA99"/>
<path d="M26.86 4V11H25.56V5.09H24.08V4H26.86ZM30.4386 6.71C31.4253 6.71 32.1553 6.90333 32.6286 7.29C33.1019 7.67 33.3386 8.19 33.3386 8.85C33.3386 9.27 33.2353 9.65 33.0286 9.99C32.8219 10.33 32.5119 10.6 32.0986 10.8C31.6853 11 31.1753 11.1 30.5686 11.1C30.0686 11.1 29.5853 11.03 29.1186 10.89C28.6519 10.7433 28.2586 10.5433 27.9386 10.29L28.4886 9.28C28.7486 9.49333 29.0586 9.66333 29.4186 9.79C29.7853 9.91 30.1619 9.97 30.5486 9.97C31.0086 9.97 31.3686 9.87667 31.6286 9.69C31.8953 9.49667 32.0286 9.23333 32.0286 8.9C32.0286 8.54 31.8853 8.27 31.5986 8.09C31.3186 7.90333 30.8353 7.81 30.1486 7.81H28.4586L28.8186 4H32.9286V5.09H29.9186L29.7686 6.71H30.4386Z" fill="white"/>
</svg>
