<svg width="190" height="54" viewBox="0 0 190 54" fill="none" xmlns="http://www.w3.org/2000/svg">
<g clip-path="url(#clip0_47_91)">
<path d="M66.8573 37.9791V39.3897H69.2508C69.1254 40.6648 68.5328 41.7706 67.2219 41.7706C66.276 41.7706 65.592 41.1952 65.3869 40.1909H63.6658C64.0077 41.9738 65.1817 43.215 67.2562 43.215C69.456 43.215 71.0517 41.7368 71.0517 38.9157C71.0517 36.0494 69.3648 34.5938 67.2334 34.5938C64.76 34.5938 63.757 36.2864 63.6658 37.4938H65.3869C65.5236 36.9974 65.8086 36.0382 67.2334 36.0382C67.94 36.0382 68.8861 36.4783 69.1824 37.9791H66.8573Z" fill="#7B8189"/>
<path d="M73.2102 34.8081V39.5364C73.2102 41.308 73.0164 41.8496 72.2414 41.8496C72.0134 41.8496 71.831 41.8158 71.7285 41.782V43.0909C72.0248 43.1812 72.3895 43.215 72.777 43.215C74.4069 43.215 74.9312 41.8384 74.9312 39.7169V36.2187H77.2679V43.0007H78.9889V34.8081H73.2102Z" fill="#7B8189"/>
<path d="M80.5813 34.8081V43.0007H86.873V41.5901H82.3024V39.3219H86.3259V37.9114H82.3024V36.2187H86.6906V34.8081H80.5813Z" fill="#7B8189"/>
<path d="M89.9048 34.8081H88.1837V43.0007H89.9048V40.2247L90.714 39.4009L93.2672 43.0007H95.4896L91.9225 38.1596L95.296 34.8081H93.0616L89.9048 38.1371V34.8081Z" fill="#7B8189"/>
<path d="M99.9217 36.2187H102.417V34.8081H95.7043V36.2187H98.2008V43.0007H99.9217V36.2187Z" fill="#7B8189"/>
<path d="M105.098 40.0442H107.081C109.304 40.0442 109.715 38.1596 109.715 37.4261C109.715 35.8124 108.757 34.8081 107.162 34.8081H103.377V43.0007H105.098V40.0442ZM105.098 36.2187H106.478C107.549 36.2187 107.993 36.5573 107.993 37.3585C107.993 37.8662 107.845 38.6336 106.705 38.6336H105.098V36.2187Z" fill="#7B8189"/>
<path d="M110.739 38.9044C110.739 42.7411 113.612 43.215 114.706 43.215C115.8 43.215 118.672 42.7411 118.672 38.9044C118.672 35.0677 115.8 34.5938 114.706 34.5938C113.612 34.5938 110.739 35.0677 110.739 38.9044ZM112.461 38.9044C112.461 36.6136 113.771 36.0382 114.706 36.0382C115.641 36.0382 116.951 36.6136 116.951 38.9044C116.951 41.1952 115.641 41.7706 114.706 41.7706C113.771 41.7706 112.461 41.1952 112.461 38.9044Z" fill="#7B8189"/>
<path d="M119.985 34.8081V43.0007H121.706V36.2187H125.878V34.8081H119.985Z" fill="#7B8189"/>
<path d="M126.975 34.8081V43.0007H133.267V41.5901H128.696V39.3219H132.72V37.9114H128.696V36.2187H133.084V34.8081H126.975Z" fill="#7B8189"/>
<path d="M136.298 34.8081H134.578V43.0007H136.298V39.3219H139.524V43.0007H141.245V34.8081H139.524V37.9114H136.298V34.8081Z" fill="#7B8189"/>
<path d="M142.836 34.8081V43.0007H149.128V41.5901H144.557V39.3219H148.581V37.9114H144.557V36.2187H148.945V34.8081H142.836Z" fill="#7B8189"/>
<path d="M152.16 40.0442H154.143C156.365 40.0442 156.776 38.1596 156.776 37.4261C156.776 35.8124 155.818 34.8081 154.222 34.8081H150.439V43.0007H152.16V40.0442ZM152.16 36.2187H153.539C154.611 36.2187 155.055 36.5573 155.055 37.3585C155.055 37.8662 154.907 38.6336 153.767 38.6336H152.16V36.2187Z" fill="#7B8189"/>
<path d="M159.878 34.8081L156.937 43.0007H158.75L159.331 41.308H162.374L162.909 43.0007H164.779L161.873 34.8081H159.878ZM160.847 36.6588H160.87L161.998 39.8975H159.786L160.847 36.6588Z" fill="#7B8189"/>
<path d="M167.543 34.8081H165.822V43.0007H171.702V44.7385H173.31V41.5901H172.489V34.8081H170.768V41.5901H167.543V34.8081Z" fill="#7B8189"/>
<path d="M176.069 34.8081H174.348V43.0007H176.194L179.568 37.1666H179.591V43.0007H181.312V34.8081H179.375L176.081 40.5181H176.069V34.8081Z" fill="#7B8189"/>
<path d="M189.461 34.8081H185.278C183.683 34.8081 182.68 36.0043 182.68 37.302C182.68 38.5997 183.614 39.3332 184.548 39.6379L182.532 43.0007H184.548L186.463 39.7958H187.74V43.0007H189.461V34.8081ZM187.74 38.3854H185.745C184.845 38.3854 184.4 37.9227 184.4 37.2456C184.4 36.8055 184.731 36.2187 185.609 36.2187H187.74V38.3854Z" fill="#7B8189"/>
<path fill-rule="evenodd" clip-rule="evenodd" d="M28.9704 38.9534C21.5073 38.9534 15.4614 33.0004 15.4614 25.6629C15.4614 18.3253 21.5073 12.3724 28.9704 12.3724C36.4335 12.3724 42.4869 18.3253 42.4869 25.6629C42.4793 33.0004 36.4335 38.9534 28.9704 38.9534ZM55.0309 27.9581C54.0058 27.1881 52.7468 26.655 51.6085 26.07C51.0808 25.7962 49.8746 24.9076 49.5128 24.5893C48.382 23.6045 47.7035 22.5605 46.3391 21.7979C46.3391 21.7979 46.6331 21.5905 46.9347 21.4646C47.9373 21.0426 49.068 21.0352 50.048 20.591C48.8041 18.7621 46.6181 19.0065 45.2008 17.7034C46.0376 17.8589 47.1457 17.7626 47.99 17.6811C49.5504 17.5331 49.7917 16.9925 50.5305 15.9116C50.7416 15.6006 51.0356 15.2896 51.2919 15.1193C52.4528 14.3567 55.4531 14.7269 56.7648 14.7269C55.6039 14.1124 53.7871 12.9721 52.4528 12.8536C47.2814 12.2317 45.2987 14.0013 41.8839 12.3132C41.507 12.1724 43.5423 10.9656 44.7786 10.9211C44.5223 10.7582 42.992 10.2325 42.4266 10.2474C41.0773 10.277 40.4138 10.736 39.3811 11.4691C39.3811 10.4991 39.4489 9.79569 40.4138 9.18855C41.0094 8.81096 42.1854 8.54441 42.6226 8.23343C43.0674 7.92246 43.5197 7.06358 43.678 6.5749C43.8363 6.09363 43.8137 4.85713 43.8137 4.85713C43.1428 5.679 42.6226 6.30094 41.5295 6.51567C41.5295 6.51567 37.1195 7.33753 36.0641 7.70034C35.0088 8.06314 33.8554 9.18855 33.8554 9.18855C33.8554 9.18855 33.697 8.99606 33.682 8.50739C33.6744 8.02612 36.0038 3.84277 35.6948 4.04267C35.3857 4.23518 33.9609 4.64981 33.1165 4.93858C32.2722 5.22734 30.8023 5.53091 29.0759 6.29354C27.3421 7.05617 26.3546 8.72211 26.1887 8.49258C26.0304 8.26305 25.6308 7.78918 25.563 7.05617C25.4877 6.31575 26.1963 5.09406 26.4827 4.43509C27.0858 3.00609 27.3497 1.28832 26.2641 0C25.8721 0.303571 22.0576 4.23518 21.2736 5.56053C20.4972 6.88587 19.3815 9.81054 19.3815 9.81054L18.0773 13.7125C18.0773 13.7125 17.6853 13.3719 17.4516 13.0239C17.2179 12.6611 17.3385 11.2839 17.3385 11.2839C17.6551 9.21816 17.6928 6.69336 15.7705 5.25695C15.2051 4.83492 14.4513 4.88675 14.4513 4.88675C14.4513 4.88675 14.9564 5.58274 14.9187 6.47124C14.8734 7.35233 14.6247 8.27045 14.6247 8.27045L13.6446 12.1724C12.8079 15.3414 13.1396 17.1628 13.0341 17.1481C11.5339 16.9925 10.3881 15.6894 10.0865 14.3345C9.9433 13.6681 9.9433 11.395 9.9433 11.395C8.26972 13.8236 7.34249 15.3859 7.8551 18.3327C8.20942 20.3689 9.37038 22.5013 10.4182 24.2857C10.961 25.2038 11.353 26.8475 11.353 26.8475C10.7197 26.2255 10.1318 25.6925 9.14421 25.6925C7.70434 25.6925 5.67648 26.929 4.43264 26.1959C4.3271 26.1293 3.96525 25.9886 3.96525 25.9886C3.96525 25.9886 4.15371 26.4033 4.25924 26.5736C5.6011 28.6986 7.29726 28.3209 9.33265 29.2761C10.4333 29.7869 11.059 30.1646 11.8279 31.1494C11.27 30.8754 9.785 31.0827 9.22715 31.2752C8.29988 31.5936 7.52342 32.297 6.52079 32.6227C4.91509 33.1484 2.64601 32.9412 1.10816 32.223C0.738772 32.0526 0 31.6158 0 31.6158C0 31.6158 0.128154 31.986 0.294001 32.3044C0.467386 32.6154 1.65093 34.2443 2.02786 34.6144C3.39232 35.9546 4.83218 36.5099 6.67157 36.7247C9.80756 36.8653 12.5365 36.2656 15.5368 36.8135C16.5545 36.9986 17.7381 37.665 17.7381 37.665C14.5267 38.6053 15.7404 40.3749 11.7752 41.1006C14.4815 42.3 16.5847 41.878 19.1779 41.1006C20.9721 40.56 22.9397 40.5378 22.9397 40.5378C21.7636 41.0709 20.2484 42.063 19.5548 43.1366C17.8813 45.7356 15.9514 47.1645 12.8305 47.5274C13.999 49.334 17.6627 48.5417 19.2609 48.0901C21.1454 47.5644 22.9245 46.6537 24.3116 45.2765C24.583 45.0099 25.4122 44.1733 25.7063 43.8623C26.0002 43.5513 26.4676 43.1293 26.9351 42.8183C27.4024 42.5074 28.2467 42.1519 28.6915 42.0483C29.1362 41.9446 30.1916 42.0926 30.1916 42.0926C30.1916 42.0926 30.1916 42.0927 30.1087 42.1519C30.0258 42.2185 29.7469 42.6924 29.5358 43.0034C28.8423 44.0326 28.5558 45.4171 28.4805 46.6241C28.4351 47.2682 28.2467 48.3492 28.2467 48.3492C29.9203 46.8017 31.0134 43.9142 33.1091 42.8775C33.4483 42.7072 33.8554 42.7295 33.8554 42.7295C33.7498 44.773 32.4155 46.513 32.4155 48.5565C32.4155 52.7251 36.4562 53.4877 36.4335 53.3396C36.2752 52.2142 36.328 50.1558 36.6069 49.0526C37.1044 47.0979 38.1673 45.1506 38.7855 43.1663C39.0871 42.1963 39.0418 40.9154 38.9136 39.9233C39.4866 39.8492 40.9415 42.4999 40.8586 42.8405C40.8586 42.1223 41.3184 40.8488 41.3863 39.9899C41.4617 39.094 41.2657 37.9612 41.0094 37.1023C42.1024 37.4947 42.8789 38.0426 43.5876 38.9311C43.9042 39.3235 44.3941 40.0121 44.6655 40.449C45.2913 41.4337 45.8039 42.8553 46.8216 43.4847C47.3116 43.7882 48.186 43.6549 48.7439 43.5883C48.2463 43.1366 47.8091 42.8331 47.5227 42.2185C46.9648 41.0191 46.8517 39.02 46.8517 37.6576C46.8517 35.4659 46.3617 33.2669 45.2234 31.3715C45.8039 31.4381 46.3316 31.5861 46.8065 31.9342C47.0552 32.1193 47.6734 32.6005 48.0126 32.4155C47.3869 31.8527 47.5905 30.7569 47.2738 30.0017C47.1683 29.75 46.8065 28.9651 46.8065 28.9651C47.2588 29.0465 47.7412 29.4019 48.1559 29.587C49.1133 30.0165 50.425 30.1423 51.4578 30.1942C53.1615 30.283 54.8953 30.2683 56.4482 31.0235C56.6141 31.1049 57.3529 31.712 57.3529 31.712C57.3529 31.2678 57.3604 30.8087 57.2021 30.3793C56.8176 29.2982 55.913 28.6319 55.0309 27.9581Z" fill="#7B8189"/>
<path fill-rule="evenodd" clip-rule="evenodd" d="M25.6537 13.9943C26.0306 13.8388 26.0306 13.8388 26.0608 13.8388C25.9402 13.8832 25.7894 13.9647 25.6537 13.9943ZM33.9159 14.4089C32.3932 13.8018 30.9231 13.513 29.2873 13.4241C29.2873 13.3353 29.2948 13.2465 29.3024 13.1576C31.1116 13.1946 32.8303 13.6093 34.3833 14.3201C34.225 14.3423 34.0667 14.3793 33.9159 14.4089ZM29.2797 14.4089C29.2797 14.2386 29.2797 14.0684 29.2797 13.898C29.3099 13.9055 29.34 13.9055 29.3777 13.9055C29.4004 13.9424 29.4004 13.9424 29.4229 14.0239C29.8376 14.098 29.5059 14.3348 29.2797 14.4089ZM29.2797 14.5496C29.2797 14.5051 29.2797 14.4608 29.2797 14.4163C29.3476 14.4385 29.3476 14.4385 29.3928 14.4608C29.3928 14.557 29.3702 14.5422 29.2797 14.5496ZM24.5758 14.557C24.5607 14.5422 24.5607 14.5422 24.5154 14.5274C24.538 14.52 24.5607 14.5051 24.5908 14.4977C24.5832 14.52 24.5758 14.5347 24.5758 14.557ZM33.4787 14.5718C33.5013 14.5051 33.5163 14.5126 33.5766 14.5274C33.5465 14.5347 33.5163 14.5496 33.4787 14.5718ZM28.5786 14.6014C28.5183 14.5866 28.4581 14.5644 28.3978 14.5496C28.4806 14.5422 28.5561 14.5274 28.639 14.52C28.6164 14.557 28.6164 14.594 28.5786 14.6014ZM24.0933 14.7272C24.1234 14.7051 24.1234 14.7051 24.1385 14.7125C24.1234 14.7125 24.1083 14.7199 24.0933 14.7272ZM28.5259 14.9938C28.4655 14.9642 28.4279 14.8901 28.3751 14.8383C28.5033 14.7643 28.6238 14.7569 28.7671 14.7569C28.6766 14.8309 28.5711 14.8828 28.5259 14.9938ZM33.6596 15.0679C33.6521 14.9642 33.6521 14.868 33.6445 14.7717C33.6596 14.7643 33.6596 14.7643 33.7425 14.8605C33.7274 14.868 33.7124 14.8754 33.6973 14.8828C33.6897 14.9864 33.6897 14.9864 33.7048 15.0605C33.6973 15.0605 33.6822 15.0605 33.6596 15.0679ZM33.539 15.4011C33.4485 15.3419 33.5314 15.3048 33.5993 15.2456C33.6219 15.2604 33.6219 15.2604 33.637 15.3344C33.5842 15.3344 33.5691 15.3566 33.539 15.4011ZM28.85 15.4158C28.85 15.3344 28.7596 15.2604 28.7068 15.2012C28.8124 15.2012 28.8124 15.2012 28.9179 15.2086C28.9556 15.2604 28.933 15.3196 28.9179 15.3788C28.9028 15.4011 28.8727 15.4085 28.85 15.4158ZM29.6114 15.4677C29.6039 15.4381 29.5963 15.4085 29.5888 15.3788C29.6114 15.3862 29.6416 15.3862 29.6718 15.3937C29.6793 15.4085 29.6868 15.4307 29.6943 15.4529C29.6642 15.4603 29.634 15.4603 29.6114 15.4677ZM28.5259 15.4825C28.4957 15.4158 28.4655 15.3566 28.4279 15.2974C28.2922 15.2974 28.1867 15.3862 28.066 15.3862C27.9756 15.2604 27.6212 15.2974 27.4705 15.29C27.4705 15.0457 26.8222 15.1493 26.679 15.1493C26.679 15.1197 26.679 15.0827 26.679 15.053C26.8373 15.0457 26.9956 15.0383 27.1614 15.0308C27.184 15.0087 27.184 15.0087 27.184 14.9568C27.1614 14.942 27.1614 14.942 26.6563 14.7939C26.6563 14.7791 26.6563 14.7569 26.6639 14.7421C26.9805 14.6976 27.1841 14.6829 27.4856 14.7643C27.4856 14.7791 27.4931 14.7939 27.4931 14.8087C27.5082 14.8235 27.5308 14.8309 27.5535 14.8383C27.5535 14.8976 27.4931 14.9272 27.4931 14.9938C27.7645 15.1493 28.0284 15.2604 28.3374 15.1493C28.5786 15.1641 28.5786 15.1641 28.6164 15.179C28.6238 15.2678 28.6314 15.3492 28.639 15.4307C28.5862 15.4603 28.5561 15.4677 28.5259 15.4825ZM30.6442 15.6602C30.5989 15.5491 30.4256 15.564 30.3201 15.5566C30.3125 15.4899 30.3125 15.4307 30.2673 15.3788C30.1995 15.3788 30.1618 15.4307 30.109 15.4677C30.0864 15.29 30.0939 15.2826 29.9582 15.1863C29.9582 15.179 29.9582 15.1641 29.9582 15.1567C29.9884 15.142 30.026 15.1271 30.0562 15.1197C30.305 15.2678 30.5386 15.2086 30.8025 15.2752C30.8176 15.3048 30.8327 15.3419 30.8478 15.3788C30.7724 15.3641 30.6367 15.2974 30.5688 15.3492C30.5688 15.3715 30.5613 15.3937 30.5613 15.4158C30.6216 15.4455 30.6819 15.4751 30.7422 15.5048C30.7196 15.5195 30.7045 15.5269 30.6895 15.5417C30.6895 15.5566 30.6895 15.5787 30.6895 15.5936C30.7045 15.6083 30.7271 15.6232 30.7422 15.638C30.7045 15.6528 30.7045 15.6528 30.6442 15.6602ZM29.0687 15.7416C29.0535 15.7269 29.0385 15.712 29.0234 15.7046C29.0461 15.7046 29.0611 15.6973 29.0838 15.6973C29.0838 15.712 29.0838 15.7194 29.0838 15.7343C29.0762 15.7343 29.0687 15.7343 29.0687 15.7416ZM28.5786 15.7491C28.5561 15.7269 28.5561 15.7269 28.5561 15.6973C28.6238 15.6973 28.6993 15.6973 28.7747 15.6973C28.7747 15.6973 28.7747 15.7046 28.7747 15.712C28.6465 15.7343 28.6465 15.7343 28.5786 15.7491ZM29.9582 15.9045C29.9506 15.8898 29.9432 15.8823 29.9356 15.8675C29.9506 15.8527 29.9657 15.8305 29.9884 15.8379C29.9884 15.8602 29.9884 15.8823 29.9884 15.9045C29.9733 15.9045 29.9657 15.9045 29.9582 15.9045ZM30.2598 16.0082C30.2447 15.9934 30.2296 15.9712 30.2145 15.9564C30.2447 15.9638 30.2748 15.9712 30.305 15.9786C30.305 15.986 30.3125 15.9934 30.3125 16.0008C30.2899 16.0008 30.2748 16.0082 30.2598 16.0082ZM28.6616 16.0082C28.6465 15.949 28.6013 15.949 28.541 15.9119C28.6465 15.9119 28.9556 15.8749 28.7068 15.9416C28.6917 15.9712 28.6766 15.9934 28.6616 16.0082ZM29.536 16.1859C29.5285 16.1785 29.521 16.1711 29.5135 16.1637C29.521 16.1637 29.536 16.1711 29.5511 16.1711C29.5436 16.1785 29.536 16.1859 29.536 16.1859ZM25.3673 16.8745C25.3145 16.8745 25.2542 16.8671 25.209 16.8597C25.2542 16.8005 25.2843 16.719 25.3673 16.7486C25.3748 16.793 25.3823 16.8301 25.3899 16.8671C25.3823 16.8745 25.3748 16.8745 25.3673 16.8745ZM25.5029 16.8819C25.4804 16.8745 25.4653 16.8671 25.4577 16.8597C25.4878 16.8449 25.518 16.8375 25.5557 16.8449C25.5557 16.8523 25.5633 16.8671 25.5708 16.8819C25.5406 16.8819 25.518 16.8819 25.5029 16.8819ZM29.6416 17.1707C29.619 17.1484 29.619 17.1484 29.5511 17.1337C29.5511 16.9634 30.8176 16.0897 30.9834 15.9638C30.81 15.9564 30.7799 15.949 30.6744 15.8231C30.8025 15.8009 31.1493 15.7565 31.2322 15.7935C31.5187 15.6083 31.5187 15.6083 31.5563 15.564C31.3905 15.4677 31.2247 15.3641 31.0589 15.2752C31.1794 15.1123 30.7648 15.1123 30.6593 15.0383C30.5161 14.8013 30.5085 14.8901 30.2522 15.0308C30.0336 14.8754 29.8753 14.8458 29.6039 14.8309C29.5963 14.8383 29.5888 14.8383 29.5812 14.8458C29.4531 14.7347 29.4079 14.8013 29.2797 14.9124C29.2797 15.0308 29.34 15.053 29.4229 15.1271C29.4229 15.179 29.3777 15.2086 29.3476 15.2456C29.3249 15.2233 29.3024 15.2012 29.2797 15.1863C29.2722 15.8157 29.2646 16.4451 29.2646 17.0818C29.227 17.0818 29.1893 17.0818 29.1516 17.0818C29.1516 16.8597 29.1441 16.6301 29.1441 16.408C29.1214 16.4302 29.1063 16.4376 29.0762 16.4451C29.0234 16.3859 28.9707 16.334 28.9179 16.2748C28.9255 16.2526 28.9254 16.2526 28.9631 16.2303C28.9707 16.2452 28.9858 16.2673 29.0008 16.2896C29.0461 16.2969 29.0988 16.3044 29.1516 16.3118C29.1666 16.1267 29.1666 16.1267 29.1666 14.9346C29.1214 14.905 29.0838 14.868 29.0461 14.8532C29.0159 14.8754 28.9858 14.9124 28.9405 14.9124C28.8952 14.8532 28.85 14.7939 28.8124 14.7347C28.8952 14.7272 28.9707 14.7199 29.0461 14.7125C29.0687 14.6903 29.0687 14.6903 29.0687 14.6384C29.046 14.6237 29.0461 14.6237 28.85 14.5718C28.9556 14.5644 29.0611 14.557 29.1742 14.5496C29.1742 14.3275 29.1817 14.1053 29.1817 13.8906C28.1414 13.8314 28.1414 13.8314 28.066 13.824C27.8474 13.6611 27.8474 13.6611 27.7947 13.6463C27.5685 13.7055 27.1011 13.7722 27.5384 13.9055C27.4554 13.9424 27.3801 13.9869 27.3046 14.0313C27.3046 14.1572 27.478 14.1498 27.576 14.1794C27.576 14.1868 27.576 14.1942 27.576 14.2016C27.4404 14.2609 27.6665 14.3497 27.6967 14.3571C27.6967 14.3867 27.6967 14.4089 27.7042 14.4311C27.478 14.4385 27.2519 14.4534 27.0332 14.4608C27.0332 14.4385 27.0332 14.4163 27.0332 14.3941C27.0031 14.3571 26.9352 14.3645 26.89 14.3571C26.89 14.3348 26.89 14.3201 26.89 14.3052C26.8373 14.2534 26.7618 14.3052 26.7016 14.3275C26.5433 14.1719 26.3096 14.4237 26.2719 14.5866C26.1513 14.5718 26.0306 14.5644 25.91 14.557C25.8799 14.5274 25.895 14.4904 25.8723 14.4608C25.7065 14.4608 25.5256 14.52 25.3597 14.5496C25.3899 14.5347 25.4125 14.52 25.4351 14.4977C25.4351 14.4755 25.4351 14.4608 25.4351 14.4385C25.4201 14.4311 25.405 14.4163 25.3899 14.4089C24.9376 14.5644 24.9376 14.5644 24.9149 14.557C25.2618 14.1719 25.8498 14.1498 26.2493 13.861C26.2493 13.8462 26.2493 13.824 26.2493 13.8092C26.2342 13.7944 26.2116 13.7795 26.1965 13.7722C27.8173 13.1354 29.7019 13.6463 31.3151 13.9055C32.0615 14.2164 32.8002 14.52 33.5465 14.8309C33.5465 15.1049 33.539 15.142 33.3506 15.327C33.3506 15.4529 33.539 15.4603 33.5541 15.6083C33.5766 15.6158 33.6069 15.6232 33.637 15.638C33.6521 15.7491 33.6747 15.8675 33.6973 15.986C33.4485 16.0601 32.7173 16.3636 32.4912 16.3192C32.2273 15.8083 32.2423 15.8675 31.6694 15.7861C31.6694 15.7416 31.6619 15.6973 31.6619 15.6454C30.9533 16.1267 30.2899 16.6227 29.6416 17.1707ZM23.0002 14.6237C24.5154 14.4977 26.0834 15.3344 27.2971 16.1267C27.2745 16.1267 27.2745 16.1267 26.8524 15.9934C26.7694 15.8898 26.7694 15.8898 26.7544 15.8823C26.6563 15.9786 26.4603 15.9564 26.3397 15.9119C26.3322 15.8823 26.3171 15.8602 26.3397 15.8305C26.3247 15.8157 26.1437 15.8305 26.1061 15.8157C26.1061 15.7343 26.1211 15.6898 26.1513 15.601C25.7592 15.2678 24.9602 15.4381 24.538 15.6306C24.538 15.7046 24.8169 15.638 24.8169 15.8157C24.8924 15.8527 24.9753 15.8823 25.0582 15.9194C25.0582 15.986 25.0431 16.0378 25.0129 16.097C25.0356 16.1119 25.0582 16.1267 25.0808 16.1489C25.0808 16.1637 25.0808 16.1859 25.0883 16.2081C25.0431 16.2526 24.9753 16.2526 24.9451 16.3044C24.9753 16.3636 25.0129 16.4228 25.0431 16.4821C25.0808 16.4821 25.126 16.4894 25.1712 16.4969C25.2391 16.6005 25.1109 16.6227 25.028 16.6523C25.0054 16.7116 24.9904 16.7634 24.9753 16.8226C23.2489 16.7486 21.4548 16.6746 19.7888 17.2003C19.6455 17.2595 19.5475 17.3039 19.4797 17.3336C20.4823 16.2452 21.6734 15.327 23.0002 14.6237ZM23.8671 17.6001C23.8369 17.5853 23.8143 17.5779 23.7841 17.5557C23.7917 17.4595 23.7917 17.3558 23.7992 17.2595C23.8822 17.2003 23.9575 17.1188 24.0555 17.0892C24.0555 17.2447 24.0782 17.1559 24.1234 17.2373C24.0631 17.2966 24.033 17.2966 24.048 17.3928C24.0933 17.4076 24.0933 17.4076 24.1461 17.4002C24.1083 17.4891 23.95 17.5631 23.8671 17.6001ZM26.3247 18.6663C26.3397 18.6515 26.3397 18.6515 26.3925 18.6589C26.3699 18.6589 26.3472 18.6663 26.3247 18.6663ZM26.9805 18.7034C26.9579 18.7034 26.9352 18.6959 26.9202 18.6959C26.9202 18.6811 26.9202 18.6737 26.9202 18.6663C26.9504 18.6737 26.9805 18.6811 27.0107 18.6885C26.9956 18.6959 26.9805 18.6959 26.9805 18.7034ZM22.3594 18.7034C22.3443 18.6959 22.3293 18.6885 22.3142 18.6811C22.3368 18.6737 22.3594 18.6663 22.3745 18.6663C22.3669 18.6811 22.3669 18.6885 22.3594 18.7034ZM21.8317 18.9847C21.8241 18.9477 21.8241 18.918 21.8241 18.8884C21.9749 18.8292 22.0654 18.7477 22.2086 18.7181C22.186 18.7773 22.1785 18.8366 22.1634 18.8959C21.9749 18.9032 21.99 18.9032 21.8317 18.9847ZM23.9878 19.54C23.9424 19.5104 23.8972 19.4808 23.8596 19.4512C23.9878 19.4512 24.1159 19.4512 24.2365 19.4512C24.2365 19.4512 24.2365 19.4585 24.2365 19.4659C24.1536 19.4955 24.0631 19.5178 23.9878 19.54ZM21.1156 19.6807C21.0477 19.3253 21.0477 19.3253 21.0477 19.2734C21.1231 19.3326 21.1533 19.3623 21.2437 19.3549C21.2588 19.266 21.2814 19.1846 21.304 19.1031C21.4171 19.1254 21.5377 19.1476 21.6508 19.1698C21.485 19.3326 21.3643 19.4141 21.304 19.6363C21.2361 19.6511 21.1758 19.6659 21.1156 19.6807ZM19.2385 19.777C19.344 19.6584 19.4496 19.6214 19.6003 19.5548C19.6079 19.5845 19.6079 19.5845 19.5928 19.6511C19.4722 19.688 19.3516 19.7325 19.2385 19.777ZM22.857 19.8066C22.8494 19.7917 22.8419 19.777 22.8343 19.7621C22.759 19.7621 22.7212 19.7695 22.6383 19.7991C22.5931 19.7621 22.5403 19.7325 22.4876 19.7103C22.4876 19.6511 22.5101 19.6141 22.5403 19.5622C22.6534 19.5474 22.9248 19.577 22.9248 19.4363C22.9022 19.4216 22.8795 19.4067 22.8645 19.3993C22.8645 19.3919 22.8795 19.3845 22.8871 19.3771C22.9022 19.3771 22.9173 19.3845 22.9323 19.3919C22.9549 19.4585 22.9549 19.4585 22.9851 19.503C23.0002 19.503 23.0153 19.5104 23.0304 19.5104C23.0454 19.4955 23.0605 19.4882 23.068 19.4808C23.0529 19.4216 23.0378 19.3697 23.0304 19.3179C23.0378 19.3179 23.0529 19.3253 23.068 19.3253C23.068 19.3327 23.0756 19.3475 23.0831 19.3549C23.2564 19.3623 23.3092 19.3475 23.4299 19.4659C23.1887 19.7251 23.2037 19.7695 22.857 19.8066ZM21.3869 20.1175C21.4095 20.0953 21.4397 20.0879 21.4623 20.0731C21.4699 20.0879 21.4699 20.0953 21.4774 20.1101C21.4472 20.1101 21.4171 20.1175 21.3869 20.1175ZM21.9448 20.1545C22.0428 20.0805 22.1559 19.9472 22.2916 20.0065C22.2916 20.0138 22.2916 20.0212 22.2916 20.0287C22.1559 20.1249 22.1031 20.1398 21.9448 20.1545ZM17.7383 20.7543C17.761 20.6284 17.7835 20.5025 17.8137 20.3766C17.8966 20.347 17.987 20.3174 18.0776 20.2952C18.0851 20.3841 18.1001 20.4433 18.0549 20.5322C17.9343 20.5322 17.8213 20.6802 17.7383 20.7543ZM35.1598 20.7691C34.9788 20.5988 34.7904 20.4285 34.6095 20.2656C34.7074 20.3323 34.7074 20.3323 34.7301 20.3323C34.6848 20.1841 34.3456 19.9176 34.6698 19.8806C34.9412 20.1471 35.0241 20.3915 35.1673 20.7469C35.1673 20.7543 35.1673 20.7543 35.1598 20.7691ZM18.0324 20.7765C18.0398 20.7173 18.0549 20.6654 18.07 20.6136C18.07 20.6136 18.0776 20.6136 18.0851 20.6136C18.0926 20.6506 18.1001 20.6877 18.1152 20.7173C18.0851 20.7395 18.0625 20.7543 18.0324 20.7765ZM19.1178 20.8061C19.0651 20.7839 19.0199 20.7617 18.9671 20.7469C18.952 20.6506 18.937 20.547 18.9219 20.4507C18.9595 20.2656 19.0877 20.1175 19.1103 19.925C19.2988 19.8584 19.4872 19.7991 19.6757 19.7399C19.7134 19.6288 19.7435 19.3697 19.9169 19.3697C19.8642 19.777 19.6983 20.5691 19.2234 20.7024C19.1933 20.7469 19.1706 20.7987 19.1178 20.8061ZM19.638 20.8283C19.5852 20.7617 19.5475 20.7098 19.4647 20.6877C19.5249 20.5988 19.7058 20.3693 19.8114 20.199C19.834 20.199 19.8641 20.199 19.8868 20.199C19.8114 20.3915 19.7963 20.5248 19.7813 20.7395C19.7285 20.7691 19.6833 20.7987 19.638 20.8283ZM25.0883 20.9246C25.028 20.7543 24.9602 20.5914 24.8924 20.4211C24.8773 20.4137 24.8546 20.4062 24.8396 20.4062C24.93 20.2952 25.0657 20.0953 25.2014 20.0583C25.2994 20.1545 25.322 20.6654 25.3371 20.8506C25.2542 20.9098 25.2014 20.9098 25.0883 20.9246ZM24.131 20.9468C24.1083 20.9246 24.1083 20.9246 23.7841 20.8135C23.7841 20.7839 23.7841 20.7839 24.0405 20.3915C24.2893 20.3915 24.3269 20.3396 24.3872 20.0879C24.538 19.9695 24.6963 19.8584 24.8546 19.7474C24.8546 19.688 24.8546 19.6362 24.8546 19.5845C25.7517 19.0958 26.6111 18.5627 27.5233 18.0887C27.6514 18.0295 28.3751 17.6297 28.4806 17.6667C28.4882 17.7037 28.5183 17.7333 28.4957 17.7704C27.2821 18.2591 26.1286 18.9402 25.028 19.6288C25.0205 19.6363 25.0205 19.6511 25.0205 19.6659C25.126 19.7251 25.126 19.7621 25.2618 19.7843C25.2542 19.7991 25.2542 19.8213 25.2467 19.8362C24.93 20.1249 24.4476 20.8431 24.131 20.9468ZM25.5934 21.006C25.616 20.969 25.6387 20.9319 25.6688 20.9023C25.6989 20.9246 25.6989 20.9246 25.714 20.9616C25.6915 20.9764 25.6915 20.9764 25.5934 21.006ZM20.03 21.1615C19.9923 21.1319 19.9546 21.1097 19.9245 21.0875C19.9546 20.7173 19.8717 20.5025 20.0376 20.1249C20.128 20.0805 20.226 20.0435 20.3165 20.0065C20.4145 19.8954 20.52 19.6066 20.6256 19.5548C20.6256 19.6066 20.6256 19.6659 20.6331 19.7177C20.6783 19.7621 20.7236 19.7251 20.7688 19.6955C20.8064 19.9472 20.7688 19.8732 21.0854 19.9695C21.1231 20.0212 21.1608 20.0657 21.1985 20.1175C21.2136 20.1175 21.3267 20.0879 21.3267 20.1249C20.9045 20.2137 20.995 20.5099 20.7612 20.6358C20.6632 20.6358 20.5652 20.6432 20.4748 20.6506C20.324 20.8209 20.1808 20.9912 20.03 21.1615ZM18.5298 21.1838C18.4997 21.0505 18.4997 21.0578 18.3565 21.0356C18.3037 20.9172 18.1453 20.6432 18.1756 20.5173C18.266 20.4656 18.3942 20.347 18.4997 20.347C18.5676 20.4803 18.6053 20.4877 18.7485 20.4581C18.7108 20.6432 18.7032 21.0727 18.5298 21.1838ZM23.5505 21.3836C23.1509 21.0209 23.1509 21.0209 23.1434 21.006C23.4751 20.6654 23.5882 21.0209 23.6258 21.3392C23.6184 21.3467 23.6108 21.3614 23.6033 21.3763C23.5882 21.3763 23.5656 21.3763 23.5505 21.3836ZM22.9022 21.5835C22.857 21.5762 22.8193 21.5688 22.774 21.5613C22.7363 21.4651 22.6082 21.2355 22.6308 21.1319C22.6534 21.1171 22.676 21.1023 22.6911 21.0875C22.6911 21.1393 22.6987 21.1911 22.7062 21.243C22.8042 21.1541 22.8042 21.1541 22.857 21.1171C22.9097 21.1985 23.068 21.3984 23.068 21.4947C23.0077 21.5392 22.97 21.5613 22.9022 21.5835ZM23.0454 21.6576C23.068 21.5909 23.1736 21.5688 23.2037 21.5021C23.1359 21.3836 22.9549 21.1467 22.9549 21.0209C23.1057 20.9023 23.2414 20.7987 23.3092 20.6284C23.6334 20.4359 23.9424 20.2212 24.2516 20.0065C24.2516 19.9991 24.244 19.9916 24.244 19.9916C24.2214 19.9916 24.1988 19.9991 24.1686 19.9991C23.7992 20.1916 23.347 19.9324 22.9549 20.2064C22.9549 20.2878 22.9776 20.2952 23.0529 20.3248C23.0378 20.3545 23.0228 20.3841 23.0153 20.4137C22.9173 20.4137 22.8419 20.4137 22.759 20.3545C22.4273 20.3545 22.4273 20.7247 22.1408 20.4656C22.3443 20.2878 22.5554 20.1101 22.759 19.9324C22.9022 19.9102 23.0454 19.8954 23.1887 19.8806C23.2867 19.7695 23.3922 19.6511 23.4902 19.54C23.6033 19.54 23.6033 19.5918 23.6184 19.4512C23.7314 19.5178 23.8369 19.577 23.9424 19.6437C24.3044 19.6437 24.3721 19.4363 24.7265 19.5918C24.7415 19.6362 24.7415 19.6362 24.7341 19.7177C24.4928 19.8954 24.2516 20.0731 24.0103 20.2508C23.9199 20.3841 23.7616 20.732 23.6184 20.8061C23.6409 21.0875 23.754 21.2355 23.6108 21.4947C23.4299 21.5465 23.2339 21.5984 23.0454 21.6576ZM20.716 21.8427C20.716 21.8353 20.716 21.8279 20.716 21.8205C20.6859 21.8057 20.6557 21.7909 20.6256 21.776C20.6256 21.7538 20.6256 21.7316 20.6256 21.7094C20.6708 21.6872 20.7084 21.665 20.7537 21.6502C20.7462 21.5095 20.7462 21.5095 20.6859 21.1541C20.799 21.0282 20.7688 20.9319 20.7763 20.7617C20.9647 20.6506 20.9723 20.6284 21.0326 20.4285C21.1909 20.3323 21.3492 20.1841 21.5527 20.2137C21.5302 20.2656 21.5302 20.2804 21.5453 20.3396C21.6357 20.3396 21.7111 20.2952 21.794 20.2508C21.6282 20.5395 21.5226 20.5691 21.1985 20.6506C21.0703 20.9023 21.0402 21.3022 21.1005 21.5762C21.0854 21.6131 21.0854 21.6131 21.0251 21.702C20.9346 21.7094 20.8517 21.7168 20.7688 21.7316C20.7462 21.7391 20.7311 21.8427 20.716 21.8427ZM21.4925 22.0278C21.3643 21.7316 21.3869 21.3836 21.5 21.0801C21.598 21.006 21.696 20.9319 21.794 20.8506C22.0654 20.9172 21.99 21.0578 22.0955 21.2281C22.1408 21.2281 22.186 21.2356 22.2313 21.2356C22.2313 21.4059 22.4424 21.2207 22.5252 21.2059C22.578 21.3318 22.6232 21.4577 22.676 21.5762C22.5705 21.7538 22.3896 21.5909 22.2991 21.5169C22.1559 21.5909 22.0127 21.8205 21.9147 21.9463C21.8468 21.9759 21.8468 21.9759 21.4925 22.0278ZM21.304 22.0574C21.108 21.6724 21.206 21.6576 21.1382 21.243C21.206 21.0727 21.2512 20.9098 21.2814 20.7247C21.4397 20.6951 21.6658 20.5248 21.7714 20.5248C21.7789 20.5322 21.7865 20.5395 21.8016 20.547C21.7638 20.8061 21.5905 20.8876 21.3944 21.0356C21.3417 21.4206 21.2437 21.6872 21.3719 22.0426C21.3492 22.05 21.3267 22.05 21.304 22.0574ZM17.1202 22.398C17.0523 22.0574 17.0523 22.0574 17.0372 21.9167C17.2106 21.428 17.3916 21.0209 17.6479 20.5766C17.6252 20.6951 17.6102 20.8135 17.5875 20.9246C17.7383 21.0578 17.8062 20.7469 17.9268 20.7469C17.9117 20.8283 17.8891 20.9023 17.8966 20.9764C17.9042 20.9838 17.9193 20.9912 17.9343 20.9986C17.8815 21.1467 17.8287 21.3022 17.776 21.4577C17.7232 21.428 17.6629 21.3836 17.6102 21.4133C17.4443 21.7391 17.286 22.0722 17.1202 22.398ZM22.48 22.5239C22.2689 22.4795 22.1408 22.1388 22.0277 21.9686C22.1106 21.8575 22.2011 21.7538 22.3066 21.6576C22.6383 21.9167 22.6308 21.5539 22.9173 21.6946C22.8721 21.7538 22.8343 22.2425 22.8042 22.3832C22.6082 22.3166 22.6082 22.3166 22.5403 22.5239C22.5177 22.5239 22.5027 22.5239 22.48 22.5239ZM20.4522 22.5387C20.4371 22.5312 20.422 22.5239 20.4145 22.5165C20.4145 22.3906 20.5049 22.2277 20.5426 22.1092C20.6481 22.087 20.6859 21.9834 20.7236 21.8871C20.7311 22.013 20.7688 22.1611 20.7688 22.2574C20.6934 22.3313 20.5501 22.5165 20.4522 22.5387ZM18.4318 23.0126C18.5374 22.8127 18.6429 22.6127 18.756 22.4128C18.8992 22.4128 18.9294 22.4128 19.035 22.3166C19.1555 22.4424 18.9595 22.5757 18.8917 22.6571C18.6128 22.6571 18.6731 22.6794 18.6128 22.9385C18.56 22.9681 18.4922 22.9829 18.4318 23.0126ZM20.5351 23.1606C20.4898 23.0792 20.4371 23.0052 20.3918 22.9311C20.4673 22.7237 20.6407 22.3906 20.8592 22.324C20.8064 22.5165 20.6632 22.8052 20.6632 22.9903C20.6708 23.0052 20.6859 23.0126 20.7009 23.0273C20.6331 23.094 20.6331 23.094 20.5351 23.1606ZM20.3994 23.1902C20.2863 23.1014 20.2411 23.0718 20.1054 23.0495C20.2486 22.8127 20.2486 22.5757 20.2863 22.2944C20.3918 22.0055 20.5728 21.7983 20.3994 21.5243C20.0225 21.5243 19.9018 22.435 19.8717 22.709C19.8416 22.709 19.8114 22.709 19.7888 22.7164C19.736 22.7831 19.6833 22.8941 19.6003 22.9089C19.849 22.5757 19.8641 22.2277 19.9471 21.8205C20.03 21.6946 20.2787 21.3614 20.128 21.2134C20.2562 21.0578 20.3843 20.9098 20.5125 20.7691C20.5652 20.7617 20.6105 20.7617 20.6557 20.7543C20.6557 20.9098 20.6859 21.006 20.5728 21.1171C20.5954 21.2726 20.6256 21.428 20.6481 21.5835C20.6029 21.6058 20.5577 21.628 20.5125 21.6576C20.5125 21.7094 20.5125 21.7687 20.52 21.8279C20.5426 21.8427 20.5652 21.8575 20.5879 21.8723C20.5728 22.0055 20.5049 21.9538 20.4446 22.0426C20.3918 22.2129 20.309 22.3832 20.2863 22.5609C20.3165 22.5757 20.3466 22.5905 20.3843 22.6127C20.3843 23.0126 20.226 22.7904 20.4295 23.1902C20.4145 23.1902 20.4069 23.1902 20.3994 23.1902ZM21.1608 23.4716C21.0402 23.2939 20.9271 23.1162 20.8064 22.9385C20.8064 22.709 21.0703 22.4054 20.912 22.2277C20.8894 22.1388 20.8894 22.1388 20.8819 21.8353C20.9798 21.813 20.9798 21.813 21.0703 21.8205C21.2211 22.1092 21.3267 22.3832 21.5302 22.6349C21.6734 22.9237 21.6055 22.9977 21.4925 23.3013C21.3794 23.3531 21.2663 23.4123 21.1608 23.4716ZM20.7688 23.6493C20.618 23.5234 20.5276 23.479 20.5276 23.2791C20.5879 23.2124 20.6632 23.0644 20.7462 23.0422C20.8517 23.1977 20.9497 23.3531 21.0628 23.5086C21.0251 23.5752 20.8366 23.5752 20.7688 23.6493ZM22.2086 23.8863C22.073 23.827 21.9674 23.8048 21.8694 23.7752C21.8241 23.6197 21.6433 23.6197 21.7789 23.4494C21.7413 23.3902 21.6809 23.368 21.6206 23.331C21.6206 23.1977 21.7111 23.0422 21.7638 22.9163C21.7638 22.6349 21.4322 22.4573 21.3944 22.2203C21.4774 22.2055 21.5226 22.2055 21.5377 22.1241C21.6809 22.1092 21.8241 22.087 21.9749 22.0722C22.2765 22.5387 22.2765 22.5387 22.3293 22.6053C22.7439 22.6571 22.6082 22.7756 22.5629 23.1532C22.759 23.5382 22.759 23.5382 22.8193 23.6863C22.6157 23.753 22.4121 23.8196 22.2086 23.8863ZM19.7209 23.9084C19.7209 23.8271 19.7285 23.7974 19.7662 23.7159C19.8416 23.7159 19.8416 23.7159 19.8416 23.7308C19.834 23.7308 19.8265 23.7308 19.8189 23.7308C19.7963 23.8122 19.7586 23.8418 19.7209 23.9084ZM21.7036 24.0121C21.6809 24.0047 21.6583 23.9973 21.6357 23.9899C21.6282 23.9233 21.6282 23.8567 21.6282 23.79C21.6658 23.79 21.7036 23.79 21.7413 23.79C21.7413 23.864 21.7413 23.9381 21.7413 24.0121C21.7262 24.0121 21.7111 24.0121 21.7036 24.0121ZM17.7459 24.2046C17.6177 24.1009 17.482 23.9973 17.3463 23.8937C17.3463 22.8941 17.7534 21.8501 18.0776 20.9172C18.1077 20.8949 18.1379 20.8727 18.1756 20.8727C18.2434 21.0282 18.2359 21.1541 18.4167 21.1541C18.4243 21.2577 18.4017 21.3392 18.5148 21.3392C18.5901 21.2652 18.6656 21.1911 18.7409 21.1171C18.9143 21.4206 18.937 21.8057 19.0047 22.1463C18.9219 22.2425 18.7636 22.2351 18.6806 22.3017C18.4243 22.7904 18.2283 23.1606 17.874 23.5752C17.8137 23.7677 17.7986 23.9825 17.7685 24.1824C17.7534 24.1972 17.7534 24.2046 17.7459 24.2046ZM16.487 24.3824C16.5849 23.6567 16.6905 22.857 16.9694 22.1759C16.9995 22.324 16.9543 22.6202 17.1503 22.5979C17.6328 21.6058 17.6328 21.6058 17.6931 21.5243C17.7006 21.5392 17.7157 21.5465 17.7232 21.5539C17.4896 22.287 17.3614 22.9977 17.2257 23.7604C17.075 23.9455 17.075 23.9455 17.0523 23.9529C16.9769 23.5975 16.9769 23.5975 16.9468 23.5309C16.9241 23.5309 16.9016 23.5309 16.8789 23.5309C16.7809 23.9306 16.7885 24.1232 16.487 24.3824ZM22.0503 24.5453C22.0277 24.4341 22.0127 24.323 21.99 24.2195C22.0127 24.323 22.0428 24.4341 22.0503 24.5453ZM30.8251 24.8044C30.7799 24.7303 30.7422 24.6711 30.7196 24.5896C30.7572 24.5822 30.795 24.5822 30.8327 24.5749C30.8628 24.6119 30.8779 24.6341 30.8779 24.6785C30.8854 24.6785 30.893 24.6785 30.9081 24.6859C30.9081 24.7155 30.9005 24.7525 30.9005 24.7821C30.8703 24.7895 30.8478 24.797 30.8251 24.8044ZM36.185 24.8191C36.1925 24.7599 36.2001 24.7007 36.2152 24.6415C36.185 24.5749 36.0569 24.3897 36.0719 24.323C36.2453 24.3453 36.2679 24.3527 36.4111 24.2564C36.4413 24.2638 36.479 24.2713 36.5091 24.2787C36.381 24.6045 36.5242 24.6488 36.185 24.8191ZM36.2152 24.9969C36.2076 24.982 36.2001 24.9746 36.1925 24.9673C36.2076 24.9673 36.2152 24.9673 36.2302 24.9673C36.2377 24.9895 36.2377 24.9895 36.2152 24.9969ZM17.2407 25.8113C17.1578 25.7002 17.075 25.5818 16.992 25.4707C16.9167 25.1968 17.0975 24.8191 16.9241 24.597C16.9091 24.597 16.8864 24.597 16.8713 24.597C16.7885 24.7378 16.713 24.8858 16.6377 25.0339C16.6302 25.0339 16.6226 25.0413 16.6151 25.0413C16.5698 24.871 16.5171 24.7007 16.4794 24.5304C16.7583 24.2638 16.8111 24.2195 16.9016 23.8492C16.9694 24.1898 16.9694 24.2046 17.2106 23.9306C17.678 24.2787 17.8438 24.3749 17.8966 24.9599C17.761 25.219 17.6252 25.4781 17.482 25.7373C17.301 25.8039 17.301 25.8039 17.2407 25.8113ZM20.6783 25.9223C20.6783 25.915 20.6708 25.9076 20.6708 25.9076C20.6859 25.8927 20.7009 25.8706 20.716 25.8557C20.716 25.878 20.7236 25.9002 20.7236 25.9223C20.7084 25.9223 20.6934 25.9223 20.6783 25.9223ZM22.3518 25.9594C22.2463 25.8557 22.2765 25.6632 22.269 25.5226C22.5479 25.493 22.0503 25.1968 22.1408 25.0265C22.1408 24.9673 22.1332 24.9006 22.1257 24.8414C22.2765 25.0931 22.4197 25.3449 22.5705 25.5966C22.5554 25.604 22.4273 25.5522 22.382 25.5522C22.3142 25.6485 22.3518 25.8484 22.3518 25.9594ZM23.0981 26.1149C23.0378 26.0927 23.0378 26.0927 22.4725 25.9964C22.4725 25.8927 22.4725 25.7891 22.4725 25.6928C22.5629 25.7151 22.661 25.7151 22.6987 25.8039C23.1509 25.8484 22.9851 25.4633 23.0002 25.0857C23.0605 25.0265 23.1208 24.9673 23.1811 24.908C23.2339 24.9302 23.2263 24.9895 23.2942 24.9969C23.3319 25.4781 23.3319 25.4781 23.3319 25.6188C23.2263 25.7817 23.0756 25.915 23.1284 26.1149C23.1132 26.1149 23.1057 26.1149 23.0981 26.1149ZM20.8442 26.3296C20.8215 26.2185 20.7009 26.2112 20.5954 26.1742C20.5954 26.1223 20.5879 26.0705 20.5879 26.0186C20.6632 26.0186 20.7311 26.0186 20.8064 26.0186C20.9497 25.7965 20.6708 25.5522 21.1156 25.5596C21.2588 25.6928 21.4095 25.8261 21.5603 25.952C21.5527 25.9668 21.5527 25.9668 21.4699 25.9964C21.206 26.4703 21.1985 26.1001 20.8442 26.3296ZM16.894 26.5147C16.8713 26.411 16.8713 26.411 16.8488 26.3741C16.8337 26.3667 16.8111 26.3667 16.796 26.3667C16.7508 25.8113 16.5925 25.3523 16.8488 24.8636C16.8639 25.3967 16.8563 25.4633 17.1503 25.8706C17.1202 26.1149 17.1051 26.3592 16.894 26.5147ZM18.3866 26.5962C18.1303 26.4259 18.0172 25.5818 17.9645 25.2486C18.1981 25.219 17.8589 24.3897 17.8815 24.2491C17.8891 24.2417 17.9042 24.2342 17.9193 24.2268C17.9343 24.138 17.9569 23.6863 17.972 23.6419C18.168 23.4198 18.3263 23.1606 18.6053 23.0422C18.6203 23.1681 18.6203 23.1681 18.6731 24.449C18.7259 24.4934 18.7711 24.5156 18.8314 24.5453C18.8917 24.5156 18.9444 24.4267 18.9897 24.3675C19.1706 24.3675 19.2536 24.9524 19.2536 25.1079C18.4092 26.5813 18.4092 26.5813 18.3866 26.5962ZM20.2637 26.685C20.1355 26.4037 20.2184 26.1963 20.4823 26.026C20.4823 26.1001 20.4974 26.1742 20.4974 26.2481C20.5804 26.2778 20.6632 26.3074 20.7462 26.3296C20.7612 26.4333 20.7612 26.4333 20.7612 26.4851C20.618 26.4333 20.618 26.4333 20.4597 26.3963C20.4522 26.411 20.4371 26.4259 20.4295 26.4407C20.4522 26.4999 20.4823 26.5592 20.5049 26.6258C20.4145 26.648 20.3391 26.6702 20.2637 26.685ZM16.4342 26.8257C16.3964 26.1519 16.3889 25.4707 16.4342 24.7895C16.5698 25.2782 16.7281 25.8484 16.6678 26.3592C16.502 26.6702 16.502 26.6702 16.4342 26.8257ZM34.7074 26.9663C34.7074 26.8183 34.7376 26.648 34.5491 26.6554C34.5793 26.4925 34.617 26.3296 34.6471 26.1742C34.7074 26.1593 34.7602 26.1519 34.8205 26.1446C34.8657 25.9964 34.8658 25.8484 34.9261 25.7002C34.9562 25.7002 34.9864 25.6928 35.0165 25.6928C35.009 25.8113 35.0089 25.8113 35.0241 26.1149C34.8733 26.4259 34.7451 26.4481 35.0165 26.648C34.9412 26.8997 34.9487 26.8997 34.7074 26.9663ZM35.9663 27.0923C36.0418 26.8183 36.1624 26.7665 36.3885 26.5962C36.3885 26.4555 36.3885 26.4555 36.3735 26.2704C36.3885 26.263 36.4111 26.263 36.4338 26.263C36.6599 25.878 36.4111 25.5374 36.4413 25.1449C36.7127 25.3449 36.8032 25.7595 36.8408 26.0927C36.7353 26.0927 36.7127 26.3741 36.6825 26.4555C36.3357 26.5443 36.5695 26.5666 36.5091 26.8109C36.5016 26.8109 36.494 26.8183 36.4866 26.8183C36.4564 26.7813 36.4338 26.7442 36.4036 26.7146C36.381 26.7146 36.3584 26.7146 36.3433 26.7146C36.2152 26.8405 36.0945 26.9663 35.9663 27.0923ZM27.4931 27.1292C27.2971 27.0626 26.8072 26.8183 26.6186 26.8479C26.4754 26.9663 26.483 26.9442 26.3472 26.8257C26.1136 26.8257 25.9175 27.0256 25.6764 27.0478C25.616 26.996 25.5708 26.9738 25.4954 26.9442C25.4502 26.7368 25.405 26.5296 25.3597 26.3222C25.209 26.2852 24.93 26.263 24.8924 26.1075C25.0883 25.8335 25.0808 25.8854 24.9753 25.5522C24.8471 25.5522 24.7265 25.5966 24.6059 25.641C24.4777 25.604 24.3571 25.567 24.2289 25.5374C24.131 25.2338 24.1913 25.1449 24.3948 24.9673C24.4325 24.8488 24.4702 24.7303 24.5079 24.6119C24.8396 24.6266 24.8471 24.5749 24.9602 24.8488C25.028 24.8784 25.2391 24.8784 25.2919 24.8414C25.2843 24.7674 25.2768 24.6859 25.2693 24.6045C25.2994 24.597 25.3295 24.5896 25.3748 24.5822C25.3823 24.5526 25.3974 24.5304 25.4125 24.5082C25.5708 24.4934 25.5557 24.4786 25.5633 24.323C25.8874 24.3305 26.2116 24.3379 26.5433 24.3527C26.5734 24.4416 26.6035 24.523 26.6337 24.6119C26.7242 24.6415 26.8146 24.6711 26.9127 24.6933C26.9127 24.7378 26.9277 24.7821 26.9579 24.8117C27.2896 24.7525 27.2896 24.7525 27.3348 24.7525C27.4177 24.9895 27.5007 25.2264 27.5836 25.4633C27.6363 25.5152 27.6891 25.4707 27.757 25.4707C27.8248 25.5596 28.0133 25.5596 28.1188 25.567C28.2771 25.7151 28.3223 25.8039 28.541 25.8113C28.5636 25.841 28.5862 25.8631 28.6164 25.8927C28.5711 26.0113 28.4731 25.952 28.443 26.1742C28.3072 26.1815 28.164 26.1963 28.0208 26.2038C27.9906 26.2704 27.9906 26.2704 27.9303 26.5295C27.4328 26.6332 27.5609 26.5813 27.5157 27.1292C27.5082 27.1292 27.5007 27.1292 27.4931 27.1292ZM31.4432 27.1811C31.0211 26.9367 30.6819 27.0257 30.2447 27.107C30.1015 26.996 29.9582 26.8849 29.815 26.7738C29.3099 26.6332 29.3099 26.6332 29.2496 26.6036C29.1817 26.3148 29.1214 26.1149 28.8651 25.915C28.8651 25.9076 28.8651 25.9002 28.8651 25.8927C28.9858 25.8261 29.1063 25.7669 29.2345 25.7002C29.5285 25.7225 29.815 25.7447 30.1165 25.7447C30.222 25.604 30.1316 25.4041 30.2371 25.2412C30.3502 25.2486 30.3502 25.2486 30.5462 25.3004C30.7875 25.5522 30.7497 25.641 31.0362 25.4411C31.2397 25.4633 31.677 25.567 31.8579 25.5077C32.167 25.2931 32.2574 25.219 32.6268 25.1745C32.7022 25.6262 32.6419 25.5226 33.0414 25.4411C33.0867 25.4856 33.1319 25.5299 33.1772 25.5744C33.1545 25.6336 33.0641 25.6855 33.0113 25.7225C32.8756 25.8706 32.7399 26.0335 32.6117 26.1889C32.4987 26.2038 32.3781 26.2112 32.2801 26.263C32.2801 26.3518 32.3329 26.4184 32.3705 26.4999C32.3781 26.6999 31.6167 27.1515 31.4432 27.1811ZM26.0005 27.4032C25.9175 27.3291 25.8422 27.2552 25.7668 27.1885C25.7668 27.1737 25.7743 27.1663 25.7743 27.1515C25.8271 27.1292 25.8874 27.1145 25.9402 27.0923C26.0005 27.1811 26.1061 27.2921 26.1286 27.3958C26.0909 27.3958 26.0457 27.3958 26.0005 27.4032ZM35.1598 27.5216C35.0617 27.1959 34.9864 27.0553 35.0995 26.7442C35.1296 26.7591 35.1296 26.7591 35.4161 27.0478C35.3783 27.2625 35.3558 27.3884 35.1598 27.5216ZM26.2417 27.6253C26.0005 27.6031 25.714 27.492 25.6387 27.2329C25.7216 27.2329 25.9025 27.4403 25.9628 27.4995C26.0382 27.492 26.2116 27.4995 26.2794 27.455C26.2794 27.3291 26.1286 27.1811 26.0533 27.0774C26.0533 27.0626 26.0608 27.0478 26.0608 27.033C26.4076 26.8849 26.2869 27.107 26.498 27.0626C26.792 26.8628 27.0408 27.107 27.3574 27.1959C27.3574 27.2033 27.3649 27.2107 27.3649 27.2181C27.1991 27.2995 27.0332 27.381 26.8749 27.4624C26.3397 27.5439 26.3397 27.5439 26.3171 27.5587C26.3096 27.581 26.302 27.5957 26.2945 27.6179C26.2794 27.6253 26.2644 27.6253 26.2417 27.6253ZM35.9814 27.6994C35.9438 27.5735 35.9287 27.5439 35.8382 27.4477C35.8458 27.4328 35.8533 27.4181 35.8608 27.4106C35.9211 27.4254 35.9211 27.4254 36.0041 27.4624C35.9965 27.5365 35.9965 27.6179 35.989 27.692C35.9814 27.692 35.9814 27.692 35.9814 27.6994ZM17.6027 27.6994C17.4217 27.6549 17.2785 27.4403 17.1427 27.3144C17.1427 27.0923 17.1427 26.8701 17.1427 26.648C17.1805 26.3963 17.2709 26.1593 17.3161 25.9076C17.3916 25.8854 17.4745 25.8706 17.5574 25.8557C17.7006 25.5892 17.8363 25.3301 17.9796 25.0709C17.987 25.0931 17.9946 25.1227 18.0021 25.1524C17.776 25.1968 18.1831 26.4925 18.2283 26.6628C18.168 26.8183 18.1152 26.9886 18.0549 27.1515C17.6554 26.9367 17.6629 27.5291 17.6629 27.7068C17.6328 27.6994 17.6177 27.6994 17.6027 27.6994ZM25.2014 27.9585C25.1788 27.9437 25.1562 27.9364 25.1411 27.9289C25.1336 27.5069 24.9376 27.3736 24.6813 27.0256C24.6285 26.8034 24.6435 26.7146 24.4551 26.5888C24.4551 26.4259 24.5607 26.411 24.3269 26.263C24.2138 26.2556 24.1008 26.2556 23.9952 26.2556C24.0782 26.0556 24.1611 25.8557 24.244 25.6632C24.3345 25.6632 24.4325 25.6855 24.523 25.7077C24.3872 26.1519 24.4024 26.0409 24.8396 26.2112C24.8546 26.2334 24.8622 26.2556 24.8773 26.2778C25.0205 26.3148 25.1562 26.3592 25.2994 26.3963C25.3371 26.5962 25.3823 26.7961 25.4276 26.996C25.4653 27.0256 25.5708 27.0774 25.6387 27.1219C25.4804 27.1441 25.5557 27.1885 25.5557 27.3218C25.2693 27.455 25.3145 27.4328 25.405 27.7216C25.3597 27.7956 25.322 27.8697 25.2768 27.9364C25.2391 27.9437 25.2165 27.9511 25.2014 27.9585ZM21.6508 27.9585C21.5453 27.8474 21.4322 27.729 21.3342 27.6253C21.206 27.2921 20.8592 26.7738 20.9346 26.411C21.3869 26.3814 21.3342 26.4407 21.5679 26.0852C21.7262 26.0705 21.7714 26.1001 21.9147 26.1815C21.9523 26.537 21.9749 26.5592 21.7638 26.8257C21.7638 27.1811 21.8091 27.5439 21.8016 27.8993C21.7789 27.8919 21.7564 27.8845 21.7337 27.8771C21.6885 27.8993 21.6885 27.9067 21.6734 27.9585C21.6734 27.9585 21.6583 27.9585 21.6508 27.9585ZM24.4325 28.04C24.3797 28.0103 24.3269 27.9807 24.2666 27.9511C24.1762 27.4106 23.8219 27.0626 23.5053 26.6109C23.5505 26.6109 23.656 26.6406 23.7314 26.6406C23.7917 26.5443 23.7917 26.5443 23.8671 26.3888C24.0103 26.3814 24.1461 26.3741 24.2893 26.3741C24.4174 26.4999 24.3119 26.4629 24.3119 26.6184C24.3721 26.6628 24.44 26.7072 24.5079 26.7517C24.5983 27.2107 25.0054 27.455 25.028 27.8919C24.7491 27.8105 24.7039 27.9511 24.4325 28.04ZM16.6151 28.1363C16.5698 27.8401 16.5095 27.5513 16.4944 27.2478C16.7734 27.3884 16.7734 27.5513 16.8713 27.8401C16.796 27.9215 16.6754 28.0252 16.6377 28.1288C16.6302 28.1363 16.6302 28.1363 16.6151 28.1363ZM25.91 28.1806C25.895 28.0844 25.8874 27.9881 25.8723 27.8993C25.6461 27.8993 25.6085 28.0844 25.3522 28.003C25.4878 27.7439 25.5029 27.766 25.4276 27.4847C25.6915 27.3736 25.7065 27.4995 25.9326 27.692C26.0457 27.7068 26.1664 27.7216 26.2869 27.7364C26.2794 27.7882 26.2794 27.8327 26.2794 27.8845C26.4 27.9956 26.4302 28.003 26.4076 28.1732C26.2341 28.1732 26.0683 28.1806 25.91 28.1806ZM26.3171 28.425C26.3623 28.388 26.4151 28.3139 26.4754 28.3139C26.498 28.3361 26.5207 28.3584 26.5433 28.3806C26.5055 28.4027 26.5055 28.4027 26.3171 28.425ZM34.4512 28.9507C34.3682 28.8692 34.5491 28.7138 34.6019 28.6619C34.4737 28.6323 34.308 28.6546 34.3305 28.5064C34.3984 28.4842 34.4737 28.4621 34.5416 28.4472C34.3607 28.2843 34.2476 28.151 34.0139 28.0992C33.9084 27.8919 34.1647 27.5587 34.2777 27.4106C34.2325 27.4106 34.1873 27.4106 34.1421 27.4181C34.0893 27.492 34.0366 27.5661 33.9913 27.6402C33.8405 27.6402 33.6672 27.4995 33.539 27.4254C33.5314 27.4032 33.5239 27.381 33.5239 27.3588C33.6747 27.1145 33.8255 26.8701 33.9762 26.6258C33.9838 26.6258 33.9988 26.6184 34.0139 26.6184C34.2853 27.3514 34.519 28.0992 34.7226 28.8545C34.7226 28.8618 34.715 28.8692 34.7074 28.8841C34.5265 28.9433 34.5265 28.9433 34.4512 28.9507ZM17.8589 29.0543C17.6102 28.7508 17.4896 28.5287 17.3388 28.1732C17.09 28.1363 17.0448 28.4176 16.992 28.5879C16.9844 28.5879 16.9769 28.5879 16.9694 28.5879C16.8789 28.4768 16.7809 28.3731 16.6905 28.2695C16.7206 28.1289 16.8864 27.9956 16.9769 27.8845C16.9543 27.6845 16.8563 27.4847 16.7885 27.2995C16.3211 27.0553 16.4719 27.0404 16.6377 26.6184C16.6377 26.7442 16.6 27.0108 16.6754 27.1145C16.6905 27.1145 16.7056 27.1145 16.7206 27.1145C16.796 27.0256 16.7583 26.6036 16.7583 26.4851C16.7658 26.4851 16.7734 26.4851 16.7885 26.4851C16.7885 26.5443 16.796 26.6036 16.8337 26.6554C16.9167 26.6554 16.9769 26.5962 17.0372 26.5443C17.0372 26.8109 17.0296 27.0849 17.0296 27.3514C17.2407 27.5513 17.3689 27.766 17.6629 27.8031C17.6629 27.9956 17.6629 28.1955 17.6704 28.388C17.8589 29.047 17.8589 29.047 17.8589 29.0543ZM24.5758 29.3357C24.3194 29.2542 24.0555 29.1654 23.7992 29.084C23.7992 28.9729 24.0028 28.9137 24.0028 28.7804C23.9424 28.7138 23.8747 28.6471 23.8068 28.5805C23.8671 28.3954 23.95 28.0474 24.2138 28.0474C24.4627 28.1585 24.621 28.1732 24.8245 27.9511C25.0507 28.0177 25.2843 28.0918 25.5105 28.1659C25.5934 28.1214 25.6764 28.077 25.7668 28.0326C25.797 28.2399 25.797 28.2399 25.812 28.2769C25.8572 28.2917 25.8572 28.2917 26.3171 28.2992C26.1889 28.425 25.8271 28.3213 25.714 28.4768C25.714 28.6027 25.714 28.6619 25.6387 28.7656C25.5708 28.7656 25.5029 28.7656 25.4351 28.7656C25.3823 28.8692 25.3295 28.9803 25.2768 29.084C24.9074 29.0913 24.9074 29.0913 24.7566 29.1062C24.7114 29.1803 24.6662 29.2542 24.621 29.3283C24.6059 29.3283 24.5908 29.3357 24.5758 29.3357ZM22.4348 29.7281C22.3896 29.6837 22.3368 29.6467 22.2916 29.6096C22.2916 29.5727 22.6082 29.469 22.6459 29.4542C22.6459 29.4764 22.4499 29.7207 22.4348 29.7281ZM22.2388 30.2464C21.8619 30.1872 21.5679 30.0539 21.2211 29.8985C21.0854 29.9206 20.9573 30.002 20.8291 30.0539C20.7311 29.6837 20.4974 29.617 20.1507 29.5504C20.0903 29.2395 20.0225 28.9284 19.9621 28.6175C19.9697 28.4621 20.0225 28.1436 20.0376 27.966C19.9396 26.9886 19.9396 26.9886 19.932 26.8109C19.9999 26.7295 20.0376 26.6924 20.0451 26.5888C19.9772 26.5443 19.9094 26.6258 19.8566 26.6628C19.8717 26.3963 19.8717 26.3963 19.8642 26.2112C19.8416 26.2112 19.8114 26.2112 19.7888 26.2112C19.6907 26.648 19.638 27.1219 19.5777 27.5735C19.5249 27.5661 19.4722 27.5587 19.4194 27.5587C18.6354 26.4703 18.6354 26.4703 18.6203 26.4333C18.8464 26.0335 19.0802 25.6336 19.3064 25.2338C19.3968 25.456 19.3968 25.456 19.4119 25.4707C19.7586 24.9006 20.1204 24.3379 20.5125 23.79C20.4823 23.7011 20.4522 23.5827 20.3768 23.5086C20.324 23.516 20.2787 23.5309 20.2335 23.5382C20.2335 23.4864 20.2562 23.4198 20.2184 23.3827C20.1959 23.3827 20.1657 23.3827 20.1431 23.3827C20.1054 23.4568 20.0677 23.5234 20.03 23.5975C19.9094 23.5827 19.9094 23.6123 19.9094 23.7234C19.8944 23.7159 19.8793 23.7085 19.8642 23.7085C19.8868 23.6715 19.8717 23.5975 19.8642 23.5605C19.9471 23.3384 19.932 23.2273 20.1657 23.1458C20.3768 23.2643 20.4145 23.3013 20.4748 23.5382C20.5501 23.5975 20.6331 23.6642 20.7084 23.7308C20.7009 23.79 20.6859 23.8492 20.6783 23.9159C20.6557 23.8788 20.6407 23.8788 20.6105 23.864C20.4898 24.0269 20.4898 24.0269 20.4748 24.0713C20.5728 24.1528 20.6783 24.2713 20.814 24.2342C20.8743 24.3749 21.0251 24.3675 21.1684 24.3971C21.5226 24.7229 21.402 25.2856 22.0127 25.256C22.0503 25.2041 22.0503 25.2041 22.0654 25.2041C22.1106 25.2708 22.1559 25.3449 22.2011 25.4115C22.186 25.4189 22.171 25.4263 22.1634 25.4337C22.186 25.7595 22.1785 25.8261 21.9976 26.0852C21.6282 25.8854 21.3492 25.4707 20.9346 25.4485C20.8064 25.3819 20.6783 25.3152 20.5501 25.2486C20.422 24.982 20.5652 24.9673 20.2637 24.8784C20.2335 24.8044 20.2034 24.7303 20.1808 24.6563C20.1959 24.6488 20.211 24.6415 20.2335 24.6415C20.2335 24.5749 20.2335 24.5674 20.1883 24.5156C20.1732 24.5156 20.1657 24.5156 20.1582 24.5156C20.1054 24.597 19.4269 25.456 19.5099 25.6928C19.6079 25.7521 19.721 25.8039 19.7511 25.8261C19.8114 25.9372 19.9999 26.2852 20.1355 26.2556C20.1431 26.2778 20.1431 26.2778 20.0677 26.4999C20.1582 26.7072 20.1582 26.7072 20.2184 26.7887C20.3542 26.7887 20.5049 26.7368 20.6407 26.7072C20.6407 26.648 20.6256 26.6109 20.6029 26.5517C20.6783 26.5739 20.7537 26.5962 20.8366 26.6258C21.0251 27.1145 21.1608 27.7364 21.6357 28.0474C21.6885 28.4546 21.7186 28.8841 21.7337 29.2913C21.9071 29.4394 22.8645 29.9873 22.2388 30.2464ZM18.7485 30.4241C18.4318 30.002 18.266 29.7652 18.0474 29.2765C17.9569 28.9729 17.8665 28.6767 17.7835 28.3806C17.7835 28.04 17.776 27.6994 17.776 27.3588C17.8438 27.3144 17.9042 27.2699 17.972 27.2255C18.0172 27.2774 18.0248 27.2848 18.0926 27.2995C18.168 27.1145 18.2434 26.9294 18.3188 26.7442C18.364 26.7813 18.3866 26.7961 18.4394 26.8034C18.4922 26.7368 18.5449 26.6702 18.6053 26.6036C19.2536 27.5143 19.2536 27.5143 19.3817 27.6698C19.442 27.6772 19.5023 27.6772 19.5626 27.6845C19.5626 27.8401 19.6079 27.9881 19.6154 28.1436C19.6003 28.2251 19.5626 28.773 19.4722 28.8248C19.3666 29.0025 19.2611 29.1876 19.1555 29.3728C19.0575 29.3728 18.9595 29.3728 18.8615 29.3801C18.8088 29.432 18.8239 29.6023 18.8239 29.6837C18.7636 29.6911 18.7183 29.6911 18.6806 29.7281C18.7485 30.3871 18.7485 30.3871 18.7485 30.4241ZM28.8349 30.4464C28.7596 30.1798 29.2722 30.4167 29.2873 30.4241C29.1365 30.4315 28.9858 30.4389 28.8349 30.4464ZM28.3676 30.5426C27.9153 30.3649 27.5308 30.2612 27.1614 29.9651C27.4328 29.6023 27.953 30.1649 28.1942 30.3427C28.2922 30.3427 28.3902 30.3501 28.4957 30.3575C28.4806 30.4315 28.4203 30.4907 28.3676 30.5426ZM25.2919 30.587C25.1712 30.5278 25.0356 30.4315 24.9074 30.4167C24.8546 30.4611 24.8094 30.5056 24.7566 30.5574C24.6737 30.5352 24.5758 30.2909 24.5304 30.2168C24.2666 30.128 24.0103 30.0391 23.754 29.9577C23.754 29.7503 24.1008 30.0169 24.1008 29.7725C24.0028 29.5208 24.0028 29.5208 23.8671 29.2172C24.1008 29.2913 24.4325 29.4467 24.6737 29.4467C24.719 29.3728 24.7642 29.2913 24.8169 29.2099C25.3446 29.1062 25.2919 29.3357 25.5029 28.8767C25.5633 28.8767 25.6311 28.8692 25.6989 28.8618C25.797 28.7212 25.8347 28.6842 25.8422 28.5138C26.3397 28.4102 26.2267 28.3731 26.0758 28.8322C26.0683 28.8692 26.0683 28.9137 26.0683 28.9507C26.0985 28.9877 26.3171 29.2099 26.302 29.2542C26.2568 29.2172 26.1965 29.1358 26.1437 29.1876C26.1437 29.2617 26.1889 29.3801 26.1513 29.4467C25.9779 29.58 25.812 29.7133 25.6311 29.8466C25.5029 29.8688 25.3974 29.7578 25.2618 29.7578C24.9753 30.0835 25.2165 30.1649 25.3221 30.5796C25.307 30.587 25.307 30.587 25.2919 30.587ZM21.4925 30.8239C21.0025 30.7425 20.618 30.587 20.1582 30.3871C20.1657 30.1428 20.1732 29.8985 20.1732 29.6541C20.52 29.7133 20.6481 29.8095 20.7387 30.1576C20.8668 30.239 21.0778 30.0169 21.2286 30.0169C21.3944 30.091 21.5527 30.1724 21.7262 30.2464C21.7564 30.4019 21.7865 30.5796 21.7714 30.7351C21.6734 30.7721 21.5981 30.8092 21.4925 30.8239ZM20.1883 31.6088C19.5626 31.3496 19.3666 31.0091 18.8691 30.4685C18.7787 29.8762 18.7787 29.8762 18.7861 29.8095C18.9822 29.7652 18.9143 29.6911 18.9219 29.4912C19.3666 29.4912 19.2837 29.3432 19.5324 28.9211C19.54 28.9211 19.5551 28.9137 19.5626 28.9137C19.5777 28.9507 19.5777 28.9507 19.6003 29.58C19.736 29.8688 19.9396 30.1353 19.9018 30.4538C19.8038 30.4907 20.1355 30.9721 20.1959 31.0609C20.3315 31.2238 20.4673 31.3792 20.6029 31.5421C20.4673 31.557 20.324 31.5792 20.1883 31.6088ZM35.7478 31.6532C35.7403 31.6458 35.7327 31.6384 35.7252 31.631C35.7628 31.6162 35.7628 31.6162 35.7779 31.6236C35.7779 31.631 35.7779 31.6384 35.7855 31.6532C35.7779 31.6532 35.7628 31.6532 35.7478 31.6532ZM35.3407 31.668C35.2955 31.5792 35.2728 31.5125 35.303 31.4088C35.3181 31.4903 35.3331 31.5792 35.3407 31.668ZM32.9209 31.7421C32.7701 31.631 33.0716 31.5051 33.162 31.4681C33.1244 31.5792 33.0867 31.6384 33.0113 31.7346C32.9811 31.7346 32.951 31.7421 32.9209 31.7421ZM32.1594 31.8532C31.8654 31.668 32.0087 31.7791 32.0087 31.5421C31.8729 31.4681 31.6091 31.3718 31.6091 31.1867C32.1142 30.9646 31.9936 31.0017 32.4912 31.32C32.4912 31.4755 32.2198 31.6828 32.1594 31.8532ZM40.1503 31.9271C40.2331 31.4163 40.2558 30.9276 40.2708 30.3945C40.806 29.6763 41.2433 28.9433 41.5826 28.1214C41.3187 29.4764 40.8287 30.7573 40.1503 31.9271ZM35.597 32.1345C35.597 32.1197 35.597 32.1049 35.597 32.09C35.6045 32.09 35.6196 32.09 35.6347 32.09C35.6121 32.1049 35.6045 32.1197 35.597 32.1345ZM19.9245 32.2529C19.8642 32.016 19.8114 31.7865 19.7586 31.557C19.9094 31.557 20.0677 31.6903 20.226 31.705C20.9573 31.6013 20.8215 31.631 20.3617 31.0683C20.5501 31.1497 20.9422 31.3349 21.2361 31.4533C21.1985 31.8013 20.7914 31.979 20.5276 32.1863C20.324 32.2085 20.1204 32.2307 19.9245 32.2529ZM32.2574 32.4973C32.1971 32.1197 32.1443 32.1123 31.8277 31.8457C31.6543 31.8828 31.496 31.9568 31.3303 32.0234C31.3227 31.9271 31.3151 31.8309 31.3076 31.7346C31.2473 31.6828 31.1794 31.631 31.1417 31.5644C31.1719 31.5051 31.1945 31.4459 31.2322 31.4015C31.2775 31.3941 31.3302 31.3867 31.3755 31.3792C31.398 31.3496 31.3905 31.2978 31.3755 31.2682C31.4207 31.2608 31.4583 31.2534 31.5036 31.246C31.6242 31.4385 31.6845 31.4755 31.8805 31.5866C31.8805 31.6532 31.8353 31.6976 31.8428 31.7717C31.9635 31.8457 32.574 32.1715 32.4987 32.3789C32.4157 32.4158 32.3329 32.4603 32.2574 32.4973ZM19.1782 32.6084C18.8691 32.3196 18.2057 31.4163 18.2962 31.046C18.364 31.0757 18.4167 31.1127 18.4922 31.1127C18.5449 31.046 18.5298 30.8535 18.5298 30.7647C18.5148 30.7499 18.5148 30.7499 18.2283 30.6906C18.2132 30.4538 18.2811 30.3131 18.3565 30.091C18.5449 30.3501 18.6806 30.4981 18.7409 30.8092C18.1981 31.1942 19.2234 31.9568 19.344 32.3789C19.2083 32.4455 19.261 32.5047 19.1782 32.6084ZM35.7628 32.6232C35.8006 32.5787 35.8382 32.5343 35.8759 32.4824C35.8835 32.4824 35.891 32.4824 35.8986 32.4899C35.8533 32.5269 35.8006 32.5714 35.7628 32.6232ZM36.087 32.675C36.087 32.5935 36.087 32.5343 36.0342 32.4824C36.0719 32.4381 36.0719 32.4381 36.2302 32.1345C36.2604 32.1419 36.2905 32.1493 36.3207 32.1567C36.3508 32.2233 36.4187 32.3122 36.3735 32.3714C36.2001 32.3418 36.2302 32.5565 36.2227 32.6602C36.17 32.6676 36.1322 32.675 36.087 32.675ZM38.5294 33.0304C38.4918 32.9638 38.4541 32.8971 38.4164 32.8379C38.2883 32.8156 38.1148 32.9342 38.0018 32.9934C38.145 32.7935 38.2807 32.601 38.4239 32.4085C38.5445 32.3418 39.4265 31.8161 39.517 31.8457C39.5019 31.8753 39.5019 31.8753 39.5019 31.9198C39.5623 31.9642 39.6301 31.9642 39.7055 31.9568C39.5472 32.1271 39.4341 32.1789 39.2154 32.2678C38.9516 32.4899 38.8385 32.8305 38.5294 33.0304ZM37.8283 33.0822C37.7831 33.023 37.7831 33.023 37.753 33.0081C37.8661 33.0081 37.8661 33.0081 37.9565 33.0156C37.9113 33.0304 37.8737 33.06 37.8283 33.0822ZM31.5865 33.1118C31.383 32.9415 31.1794 32.8453 31.0814 33.0822C30.8478 32.7416 30.8478 32.7416 30.8176 32.6602C30.8703 32.3789 30.8703 32.3492 30.6969 32.1271C30.712 31.8605 30.9231 31.5421 31.1869 31.7569C31.2172 31.8753 31.187 32.0308 31.2322 32.1345C31.4282 32.1345 31.6091 31.9938 31.8052 31.9642C31.9936 32.1345 32.1443 32.2233 32.1293 32.5121C31.6694 32.5565 31.5262 32.601 31.6091 33.1118C31.6091 33.1118 31.6015 33.1118 31.5865 33.1118ZM18.56 33.0008C18.462 32.8527 18.4545 32.8379 18.4243 32.7786C18.4922 32.7639 18.4771 32.7046 18.5073 32.6972C18.56 32.8009 18.8842 33.1414 18.6957 33.1859C18.6505 33.1267 18.6053 33.0674 18.56 33.0008ZM30.9156 33.2081C30.8251 32.9415 30.8251 32.9415 30.8176 32.8823C30.8703 32.9638 30.9307 33.0452 30.9834 33.134C30.9608 33.1785 30.9608 33.1785 30.9156 33.2081ZM37.5419 33.2377C37.557 33.2081 37.5796 33.1933 37.6023 33.171C37.6098 33.2006 37.5645 33.2229 37.5419 33.2377ZM31.8805 33.2821C31.8353 33.2229 31.7976 33.2006 31.7448 33.171C31.6318 32.638 31.7674 32.6676 32.3026 32.601C32.4912 32.4973 32.4912 32.4973 32.5665 32.4677C32.5589 32.5714 32.5515 32.675 32.5439 32.7786C32.3253 32.9415 32.0991 33.1118 31.8805 33.2821ZM32.2876 33.4895C32.2801 33.4228 32.2801 33.4228 32.265 33.371C32.2047 33.3488 32.0087 33.3266 32.0087 33.3192C32.6495 32.8305 32.6495 32.8305 32.672 32.8082C32.672 32.675 32.672 32.5491 32.672 32.4158C32.574 32.2529 32.574 32.2529 32.5665 32.2085C32.6645 32.2678 32.7626 32.3195 32.8681 32.3789C32.9133 32.5639 32.951 32.7416 32.9962 32.9268C32.8153 33.0971 32.6645 33.3784 32.4006 33.3562C32.3404 33.4376 32.3404 33.4376 32.2876 33.4895ZM30.9533 33.4895C30.9608 33.3932 30.9608 33.3414 31.0211 33.26C31.0286 33.2821 31.0286 33.2821 30.9533 33.4895ZM26.3397 33.7782C25.9779 33.4746 25.8347 32.8453 25.6612 32.3936C25.616 32.1419 25.5708 31.8902 25.5256 31.6384C25.5784 31.3718 25.7668 31.135 25.4426 31.0535C25.3673 31.1127 25.3522 31.1867 25.3145 31.2682C25.2391 31.2608 25.1562 31.2608 25.0808 31.2534C25.0356 31.1793 24.9904 31.1053 24.9526 31.0387C25.0356 31.0387 25.1637 30.9498 25.1637 30.861C25.1035 30.8017 24.9602 30.8165 24.8773 30.8092C24.8471 30.7499 24.8018 30.7129 24.8018 30.6463C25.0431 30.4315 25.209 30.7573 25.4125 30.6314C25.4125 30.3945 25.2391 30.1946 25.209 29.9651C25.3597 29.817 25.4351 29.9873 25.6236 29.9873C25.8271 29.817 26.0457 29.6541 26.2568 29.4912C26.2568 29.432 26.2568 29.3801 26.2417 29.3209C26.3548 29.3209 26.3548 29.3209 26.4 29.2987C26.4 29.158 26.2493 29.0321 26.1588 28.9359C26.1965 28.81 26.2267 28.6916 26.2644 28.5656C26.6563 28.499 26.6563 28.499 26.7016 28.4768C26.7016 28.4546 26.7091 28.4324 26.7166 28.4102C26.8674 28.499 27.0332 28.5879 27.1614 28.6989C27.1614 28.773 27.0107 28.8914 26.9655 28.9507C27.0257 29.158 27.0257 29.158 27.0332 29.2246C26.9729 29.2246 26.9202 29.2246 26.8674 29.2246C26.7996 29.3135 26.8749 29.5504 26.9277 29.6319C27.1463 29.7652 27.1463 29.7652 27.1614 29.7799C27.1011 29.854 27.0257 29.9132 27.0257 30.002C27.4479 30.3205 27.8248 30.4464 28.3223 30.6314C28.4806 30.6167 28.5259 30.5056 28.6088 30.3797C28.6692 30.3723 28.6692 30.3723 28.7294 30.3797C28.7219 30.4315 28.7219 30.4834 28.7219 30.5352C28.4354 30.5944 28.6993 31.5347 28.7219 31.631C28.6842 31.6236 28.6616 31.5644 28.6465 31.5274C28.6238 31.5274 28.6088 31.5274 28.5862 31.5274C28.2092 31.9271 27.8323 32.1715 27.3649 32.4677C26.9352 32.5861 26.9352 32.5861 26.9202 32.6084C26.7769 33.4746 26.7769 33.4746 26.7544 33.5339C26.6186 33.6079 26.4754 33.6967 26.3397 33.7782ZM19.623 33.7782C19.4872 33.7042 19.3365 33.6005 19.1857 33.5783C18.9444 33.2747 18.6957 32.9638 18.4922 32.6306C17.9796 31.2608 17.4217 29.8985 16.8036 28.5731C16.8639 28.6175 16.992 28.7582 17.0146 28.773C17.1805 28.6916 17.0523 28.3139 17.2709 28.2992C17.4443 28.7285 17.6328 28.9655 17.9418 29.3283C18.2283 29.9428 18.3112 29.9058 18.1077 30.4907C18.1228 30.8165 18.1001 30.7796 18.4243 30.8388C18.4167 30.8831 18.4167 30.935 18.4167 30.9794C18.3414 30.9498 18.2208 30.8535 18.1453 30.898C18.2208 31.6236 18.7711 32.3714 19.2912 32.8527C19.4194 33.1563 19.54 33.4525 19.638 33.7634C19.6305 33.7708 19.623 33.7708 19.623 33.7782ZM31.2473 34.0448C31.1116 34.0225 31.0211 33.9782 30.9005 33.9115C30.9005 33.8375 30.9005 33.8375 30.9458 33.6153C31.0286 33.7338 31.2172 33.9188 31.2473 34.0448ZM31.3 34.1188C31.3 34.104 31.2925 34.0966 31.2925 34.0892C31.3151 34.0817 31.3151 34.0817 31.3453 34.104C31.3303 34.1114 31.3151 34.1114 31.3 34.1188ZM35.4387 34.215C35.401 34.2003 35.3709 34.1854 35.3331 34.1707C35.4764 34.0966 35.4764 34.0966 35.5367 34.0817C35.5292 34.1188 35.5216 34.1484 35.5216 34.1854C35.4914 34.1928 35.4613 34.2003 35.4387 34.215ZM26.9579 34.215C26.9352 34.1928 26.9127 34.178 26.89 34.1558C26.8976 33.8745 26.8976 33.8745 26.9202 33.7782C26.9956 33.8596 27.071 33.9411 27.1539 34.0225C27.1388 34.0744 27.1313 34.1336 27.1238 34.1928C27.0634 34.2003 27.0107 34.2003 26.9579 34.215ZM33.5993 34.4594C33.8104 34.1558 34.0742 33.8819 34.3984 33.7042C34.4737 33.6153 34.632 33.3414 34.7376 33.3117C34.8205 33.3932 34.8582 33.3858 34.9864 33.3932C34.7904 33.5709 34.7904 33.6153 34.534 33.6746C34.4135 33.8449 34.2928 34.0151 34.1647 34.1928C33.9762 34.2817 33.7877 34.3706 33.5993 34.4594ZM31.9182 34.7556C31.5488 34.6297 31.5187 34.5853 31.3453 34.2446C31.5262 34.0892 31.6996 34.1928 31.8805 34.3336C31.888 34.526 31.8956 34.5631 32.0237 34.7037C32.0162 34.7482 31.9559 34.7556 31.9182 34.7556ZM21.1005 35.3627C20.8064 35.1035 20.5804 34.9555 20.4446 34.5927C20.4748 34.6001 20.4748 34.6001 20.6481 34.7111C20.7009 34.6741 20.7612 34.6964 20.8291 34.7037C20.8517 34.6815 20.8517 34.6815 20.8668 34.6445C20.897 34.6371 20.9271 34.6371 20.9573 34.6371C20.9874 34.6667 20.9874 34.6667 21.108 34.8666C21.0175 35.0147 21.1231 35.1924 21.1005 35.3627ZM16.5925 28.8471C16.713 29.084 16.8412 29.3209 16.9769 29.5504C17.2935 30.3945 17.6328 31.1942 18.07 31.979C18.1604 32.2233 18.2584 32.4603 18.3715 32.6898C18.3564 32.638 18.349 32.5861 18.3339 32.5343C17.8363 31.2608 17.3237 29.9947 16.7583 28.7508C16.7583 28.7952 16.8412 29.084 16.8412 29.1284C16.6905 28.8471 16.5623 28.5656 16.4492 28.2843C16.2759 27.4624 16.1854 26.6109 16.1854 25.7373C16.1854 22.6275 17.3463 19.7695 19.2611 17.5705C20.9271 16.6894 23.1962 16.8523 25.0054 16.9485C25.0205 16.9634 25.0356 16.9855 25.0507 17.0078C25.0808 16.9855 25.0808 16.9855 25.0959 16.9634C25.3371 16.9781 25.5784 17.0004 25.8196 17.0226C25.8422 17.0596 25.8422 17.0596 25.8498 17.1337C25.9025 17.141 25.9025 17.1707 25.895 17.2225C25.9703 17.2151 25.9703 17.2151 26.0683 17.178C26.0834 17.1855 26.0985 17.2003 26.1136 17.2076C26.1136 17.2299 26.1136 17.2521 26.1136 17.2743C26.2644 17.2743 26.3397 17.1041 26.385 17.3187C26.5659 17.2076 26.7166 17.3484 26.8976 17.4298C26.9051 17.415 26.9127 17.4002 26.9277 17.3854C26.9504 17.3854 26.9729 17.3854 26.9956 17.3854C27.0483 17.4742 27.0634 17.5334 27.169 17.5779C27.1841 17.5483 27.1915 17.5187 27.1991 17.4965C27.1238 17.452 27.0031 17.3854 27.0559 17.2891C27.1388 17.2891 27.1915 17.3113 27.267 17.3409C27.2821 17.2817 27.2821 17.2817 27.2971 17.267C27.3952 17.2743 27.4856 17.2595 27.5911 17.2743C27.5836 17.3187 27.576 17.3632 27.5685 17.4002C27.8851 17.2817 28.1188 17.3705 28.4655 17.4298C28.4806 17.4002 28.4957 17.378 28.5109 17.3484C28.4882 17.3262 28.4882 17.3262 27.7118 17.178C27.7118 17.1262 27.757 17.1188 27.8022 17.1041C27.757 17.0744 27.7192 17.0522 27.6816 17.03C27.6816 16.8671 27.9454 16.9855 28.0509 16.7856C28.0284 16.7413 28.0208 16.719 28.0208 16.6672C28.1565 16.6672 28.5561 17.067 28.7068 17.1929C28.7369 17.1707 28.7671 17.1559 28.8048 17.141C28.6692 17.0226 28.5259 16.9115 28.3902 16.8005C28.4505 16.7856 28.5033 16.7783 28.5636 16.7634C28.5561 16.7486 28.5561 16.7338 28.5561 16.719C28.5937 16.682 28.6164 16.6894 28.6692 16.6894C28.6766 16.6598 28.6766 16.6301 28.6766 16.6005C28.7445 16.5784 28.7973 16.6154 28.8576 16.6376C28.8576 16.6301 28.8727 16.6301 28.8727 16.6227C28.8425 16.6154 28.8275 16.5931 28.8048 16.5635C28.7671 16.5561 28.7219 16.5561 28.6766 16.5561C28.6616 16.5265 28.6541 16.4821 28.6842 16.4598C28.6013 16.3265 28.5711 16.3488 28.5862 16.1859C28.6088 16.1711 28.6389 16.1489 28.6692 16.134C28.6692 16.1044 28.6692 16.1044 28.6314 16.0378C28.5862 16.0897 28.5259 16.0823 28.4581 16.0823C28.4354 16.1193 28.4203 16.1563 28.3978 16.1859C28.443 16.2081 28.4806 16.2303 28.5259 16.2452C28.5259 16.2748 28.5259 16.2969 28.5334 16.3265C28.3827 16.3859 28.36 16.3932 28.2998 16.5265C28.3978 16.5561 28.3827 16.6227 28.3827 16.719C28.2545 16.8079 27.8098 16.4821 28.0812 16.2377C27.9906 16.2155 27.8776 16.2303 27.7947 16.1859C27.7947 16.1637 27.7947 16.134 27.7947 16.1119C27.8248 16.0897 27.855 16.0823 27.8926 16.0674C27.7419 16.023 27.6137 16.1193 27.4705 16.1267C26.1889 15.3492 24.8094 14.5347 23.264 14.483C24.9904 13.6315 26.9352 13.1502 28.9858 13.1502C29.0461 13.1502 29.0988 13.1502 29.1591 13.1502C29.1591 13.2391 29.1591 13.3279 29.1591 13.4168C29.0838 13.4168 29.0159 13.4168 28.948 13.4241C29.7471 13.55 30.5462 13.6759 31.3453 13.8018C33.5691 14.7199 33.5691 14.7199 33.5993 14.7199C33.5766 14.6976 33.5541 14.6755 33.539 14.6533C33.6069 14.6237 33.6822 14.5866 33.7501 14.594C33.8104 14.4608 34.1119 14.5347 34.2174 14.5274C34.1798 14.5051 34.1496 14.4904 34.1119 14.4755C34.2552 14.4311 34.4135 14.4089 34.5567 14.4015C36.1096 15.142 37.4892 16.1785 38.6124 17.4446C38.5069 17.415 38.2656 17.3336 37.9716 17.2595C36.9615 17.0374 35.9663 16.9708 34.9412 16.9189C34.0667 16.6376 34.0667 16.6376 34.0366 16.6154C34.029 16.5931 34.029 16.5784 34.029 16.5561C34.0667 16.5191 34.1043 16.5191 34.1194 16.4673C34.0516 16.4006 34.0441 16.3044 34.0215 16.2155C33.9385 16.1193 33.8556 16.0156 33.7727 15.9194C33.7652 15.9564 33.7652 16.0008 33.7652 16.0378C33.539 16.1859 32.6645 16.2526 32.5439 16.4451C32.6495 16.6227 32.7399 16.7783 32.8078 16.9708C31.8277 17.0448 30.8478 17.1633 29.8828 17.3336C29.8753 17.3409 29.8677 17.3484 29.8677 17.3558C29.8828 17.3705 29.8979 17.4002 29.913 17.4224C30.8703 17.2817 31.8428 17.141 32.8153 17.0892C32.9811 17.2521 33.2676 17.4668 33.4862 17.5557C33.5314 17.5187 33.5766 17.4742 33.6219 17.4372C33.6294 17.178 33.6294 17.178 33.6521 17.1559C33.6746 17.1559 33.7048 17.1559 33.7274 17.1559C33.833 17.3113 33.9385 17.4668 34.0441 17.6223C34.0742 17.5927 34.0893 17.5927 34.1345 17.5927C34.127 17.5483 34.127 17.5483 34.0139 17.3262C34.029 16.9708 34.6396 17.5557 34.7074 17.6075C34.7451 17.6075 34.7829 17.6149 34.8205 17.6223C34.8205 17.5705 34.8281 17.5557 34.8582 17.5187C34.7829 17.452 34.7829 17.452 34.7527 17.4076C34.7602 17.3928 34.7678 17.378 34.7829 17.3632C34.8884 17.3632 34.9864 17.4002 35.0919 17.4224C35.0241 17.3187 34.8884 17.1707 34.8884 17.0448C35.0392 17.0448 35.1523 17.1707 35.2728 17.1707C35.2126 17.1262 35.1523 17.0892 35.107 17.0448C36.3584 17.0966 37.6023 17.1929 38.7783 17.6371C40.6553 19.8287 41.7936 22.6571 41.7936 25.7373C41.7936 26.2926 41.756 26.8331 41.6881 27.3662C41.3791 28.425 40.8966 29.3061 40.2407 30.2242C40.2256 30.1798 40.1728 29.6985 40.0824 29.084C39.4718 26.2185 38.0997 23.7234 36.0342 21.6131C35.9136 21.2355 35.8759 21.0875 35.5744 20.8283C35.5744 20.7987 35.582 20.7617 35.5895 20.732C35.5292 20.6951 35.4764 20.6654 35.4236 20.6358C34.9562 20.7173 35.0241 20.1027 34.9713 19.8362C34.9939 19.8066 34.9939 19.8066 35.1145 19.7251C34.9939 19.5326 34.6773 19.1624 34.6773 18.9329C34.6999 18.9106 34.715 18.9032 34.6999 18.8736C34.5718 18.8663 34.4436 18.8588 34.323 18.8588C34.3004 18.8366 34.3004 18.8366 34.2325 18.6441C34.1496 18.5923 34.0742 18.533 33.9913 18.4812C33.9913 18.459 33.9838 18.4294 33.9838 18.4072C34.0215 18.3702 34.1043 18.3998 34.1496 18.4072C34.1949 18.3109 34.2401 18.2294 34.308 18.1554C34.2401 18.1036 34.0818 17.9481 33.9988 17.9481C33.9762 17.9777 33.9536 18.0073 33.931 18.0444C33.946 18.0814 33.9988 18.0814 34.0366 18.0887C34.0516 18.1184 34.0516 18.1628 34.029 18.185C33.6521 18.2369 33.3882 18.4812 33.2751 18.8292C33.3506 18.8736 33.4259 18.9255 33.5089 18.9773C33.5013 18.9995 33.5013 19.0217 33.5013 19.0439C33.4561 19.0661 33.4561 19.0661 33.2751 19.1031C33.2676 19.1476 33.2676 19.192 33.26 19.2364C32.2047 18.5478 31.1116 18.0444 29.913 17.6445C29.8979 17.6741 29.8828 17.7112 29.8753 17.7408C31.0664 18.1332 32.1821 18.6367 33.2224 19.3475C33.2375 19.5918 33.0414 19.4882 32.8454 19.4808C32.7851 19.5845 32.7248 19.688 32.6645 19.7917C32.4534 19.8436 32.4534 19.8436 32.3404 19.8509C32.3102 19.8287 32.2876 19.8066 32.265 19.7917C32.1896 19.8362 31.986 19.9324 31.9484 20.0065C32.0162 20.1101 32.0765 20.1471 32.084 20.2656C31.9635 20.3766 31.8956 20.4952 31.7222 20.4803C31.7448 20.5544 31.775 20.6284 31.7674 20.7024C31.5488 20.8135 31.2699 20.4803 31.1417 20.3693C30.712 19.54 30.1843 18.733 29.6642 17.9481C29.5812 17.9925 29.5812 17.9925 29.5738 18.0073C30.0788 18.7848 30.5688 19.577 31.0286 20.3766C31.0136 20.4433 31.0362 20.4803 31.0362 20.547C30.8176 20.7247 30.6216 20.5025 30.4557 20.7617C30.4331 20.7617 30.4105 20.7617 30.3879 20.7617C30.3502 20.7247 30.3275 20.6877 30.2974 20.6506C30.2598 20.8802 30.1015 20.8949 29.9507 20.7987C30.0864 20.5618 30.3275 20.3545 30.0336 20.1841C29.9205 20.1841 29.7849 20.3545 29.7321 20.1916C29.6416 20.1916 29.6416 20.1916 29.634 20.1841C29.619 20.2434 29.5963 20.2952 29.536 20.3174C29.536 20.4729 29.3853 20.4211 29.2496 20.4285C29.2421 19.6437 29.2421 18.8588 29.2345 18.0666C29.1968 18.0666 29.1666 18.0666 29.1365 18.0666C29.129 18.8588 29.129 19.6584 29.1214 20.4507C29.031 20.5025 28.9405 20.547 28.8576 20.5988C28.8124 20.9172 28.7973 20.8506 28.4731 20.932C28.4655 20.9394 28.4581 20.9468 28.4581 20.9616C28.5485 21.1393 28.7068 21.3984 28.5033 21.5984C28.2771 21.5984 28.3902 21.3688 28.4354 21.2504C28.3525 21.1985 28.2168 21.0727 28.1188 21.1615C28.1489 21.2207 28.1791 21.2726 28.2092 21.3318C28.1942 21.3614 28.1942 21.3614 28.1489 21.391C27.9454 21.2873 27.9303 21.3022 27.9303 21.0875C27.8323 21.2059 27.7871 21.4206 27.8022 21.5835C27.8851 21.628 27.9681 21.665 28.0509 21.7094C28.0434 21.7834 28.0359 21.8575 28.0284 21.9389C28.0434 21.9463 28.066 21.9538 28.0887 21.9686C28.0887 22.1241 27.953 22.0649 27.8776 21.9834C27.8776 21.9093 27.8776 21.8353 27.8776 21.7613C27.7947 21.7613 27.5157 22.1315 27.4554 22.2129C27.3424 22.2129 27.2142 22.1166 27.2142 21.9982C27.3046 21.9463 27.5308 21.8575 27.5535 21.8353C27.6363 21.5317 27.7192 21.2281 27.7947 20.932C27.7645 20.9172 27.7268 20.9023 27.7042 20.8876C27.5308 21.006 27.3424 21.1911 27.3424 21.4133C27.3801 21.4873 27.4102 21.5465 27.4102 21.628C27.3498 21.6872 27.3122 21.7464 27.2142 21.7316C26.988 21.4206 26.988 21.4206 26.8749 21.2948C26.7845 21.3688 26.7091 21.4651 26.5961 21.4799C26.4603 21.28 27.9906 19.1105 28.2168 18.7773C28.3978 18.5108 28.5862 18.2516 28.7747 17.9852C28.7671 17.9555 28.6993 17.9333 28.6692 17.9407C27.8851 19.0439 27.1765 20.1694 26.4754 21.3244C26.4 21.3467 26.3322 21.3467 26.2568 21.3467C26.2116 21.3096 26.2342 21.2652 26.2568 21.2207C26.1889 21.2134 25.7442 21.2652 25.5332 21.2726C25.518 21.2577 25.518 21.2577 25.5029 21.0505C25.4426 21.1319 25.3823 21.2059 25.3221 21.2873C25.2165 21.2873 25.2315 21.1985 25.2315 21.1097C25.1035 21.1097 25.1035 21.1097 25.028 21.1244C24.9904 21.1985 24.9451 21.2726 24.9074 21.3467C24.8848 21.3467 24.8622 21.3467 24.8396 21.3467C24.8018 21.2652 24.7642 21.1838 24.7341 21.1023C24.6888 21.1541 24.6435 21.2134 24.6059 21.2652C24.5832 21.2652 24.5607 21.2652 24.538 21.2652C24.4852 21.1689 24.4702 21.0356 24.4702 20.9246C24.7039 20.7247 24.7039 20.7173 24.7566 20.4285C24.5531 20.6284 24.3647 20.8283 24.1686 21.0356C24.0254 21.0356 23.8596 20.9468 23.7314 20.8949C23.7465 21.0652 23.8596 21.4206 23.6636 21.5539C23.4374 21.6131 23.2112 21.6872 22.9851 21.7538C22.97 21.9908 23.0153 22.5905 22.6459 22.4424C22.6383 22.472 22.6157 22.5016 22.6082 22.5312C22.759 22.7312 22.661 22.857 22.6308 23.1088C23.0228 23.8788 22.9926 23.6567 22.3971 23.8418C22.2463 23.9306 22.2765 24.0788 22.186 24.1972C22.1559 24.1972 22.1182 24.1972 22.088 24.1972C22.1408 24.8044 22.4197 25.1672 22.7288 25.6855C22.759 25.6855 22.7891 25.6781 22.8193 25.6781C22.8267 25.4633 22.8343 25.256 22.8343 25.0413C22.8721 24.945 23.0831 24.7451 23.1887 24.7451C23.2188 24.7895 23.2188 24.7895 23.2489 24.797C23.3017 24.6341 23.2716 24.4267 23.2716 24.2491C23.3695 24.1898 23.5806 23.9455 23.6862 24.0566C23.8068 23.9973 24.0179 24.0269 24.1535 24.0269C24.2742 24.175 24.3948 24.3305 24.523 24.4859C24.8169 24.5156 24.8773 24.4638 24.9904 24.7303C25.0356 24.7303 25.0883 24.7378 25.1336 24.7451C25.126 24.6637 25.1109 24.5896 25.1035 24.5156C25.1487 24.4934 25.1712 24.4859 25.224 24.4786C25.2391 24.3675 25.2843 24.3897 25.405 24.3749C25.405 24.323 25.3974 24.2491 25.4276 24.2046C26.5131 24.2268 26.5131 24.2268 26.5659 24.2417C26.5885 24.2713 26.5885 24.2713 26.6639 24.5082C26.7769 24.5453 26.9579 24.5453 26.9655 24.6859C27.2896 24.6192 27.2896 24.6192 27.3424 24.6192C27.4479 24.7229 27.5609 25.1968 27.6137 25.3523C27.6665 25.3301 27.6816 25.3227 27.7419 25.3227C27.8474 25.4707 27.9756 25.4115 28.1414 25.4707C28.2922 25.6188 28.3148 25.6781 28.5183 25.6781C28.5636 25.7225 28.6013 25.7669 28.6465 25.8188C28.8275 25.7373 29.031 25.5892 29.227 25.5596C29.4984 25.6114 29.7321 25.6188 30.0109 25.6188C30.0109 25.4115 29.9884 25.2486 30.1542 25.0931C30.4784 25.1598 30.5537 25.182 30.7799 25.4115C30.81 25.4041 30.81 25.4041 30.9382 25.3301C31.5714 25.3078 31.6393 25.4707 32.1821 25.1006C32.4006 25.0413 32.6344 25.0931 32.8078 24.945C32.7851 24.7451 32.6947 24.5008 32.6947 24.3157C33.0339 24.0343 33.0339 24.0713 33.4787 24.0713C33.6144 24.1972 33.7425 24.3379 33.8782 24.4712C34.029 24.4712 34.1798 24.4712 34.3305 24.4712C34.3607 24.5008 34.3833 24.5304 34.4209 24.56C34.5115 24.4267 34.6019 24.2861 34.6923 24.1528C34.715 24.1528 34.7376 24.1528 34.7678 24.1528C34.8959 24.412 35.0015 24.7599 35.0165 25.0487C34.7753 25.3004 34.7979 25.2412 34.9713 25.5448C35.0165 25.3449 35.0467 25.3967 35.2578 25.3967C35.4689 24.9377 35.3331 24.3601 35.2955 23.8567C35.1748 23.6345 35.0617 23.4123 34.9412 23.1977C34.8506 23.1755 34.7602 23.1532 34.6698 23.131C34.632 23.0718 34.6923 23.0422 34.6923 22.9903C34.6547 22.9903 34.6246 22.9829 34.5868 22.9829C34.5491 23.0718 34.5115 23.1902 34.4512 23.2643C34.4059 23.2643 34.3682 23.2643 34.3305 23.2643C34.2928 23.2273 34.2552 23.1902 34.225 23.1458C34.1647 23.1532 34.0818 23.1828 34.029 23.1458C34.0215 22.709 34.0215 22.2795 34.0139 21.8501C34.127 21.7242 34.2476 21.5984 34.3607 21.4799C34.3532 21.428 34.3532 21.3763 34.3532 21.3244C34.4436 21.2726 34.5642 21.1541 34.6698 21.1689C34.6773 21.1319 34.6923 21.0948 34.7074 21.0578C34.4587 20.9986 34.323 20.5025 34.4587 20.2952C34.813 20.6136 35.122 20.8209 35.3106 21.243C35.5668 21.428 35.8231 21.6205 36.0794 21.8057C38.3259 24.0121 39.7809 27.1367 40.0824 30.2316C40.0748 30.276 40.0748 30.3131 40.0748 30.3575C38.7933 31.8383 37.3685 32.9711 35.597 33.8522C35.597 33.8078 35.597 33.7634 35.597 33.719C35.989 33.5191 35.989 33.5191 35.9814 33.5117C35.8533 33.5709 35.7252 33.6301 35.5895 33.6967C35.5517 31.4607 34.9412 29.2765 34.2777 27.1589C34.1571 26.8405 34.1421 26.8997 34.3607 26.6406C34.4737 26.3741 34.3532 26.0927 34.6622 26.0335C34.6698 25.9076 34.7074 25.6114 34.8356 25.5596C34.6622 25.2264 34.632 25.2782 34.8959 25.0043C34.715 24.3749 34.715 24.3749 34.6923 24.3379C34.6095 24.4563 34.534 24.5749 34.4512 24.7007C34.4285 24.7007 34.4059 24.7007 34.3908 24.7007C34.3532 24.6563 34.308 24.6119 34.2702 24.5749C34.1194 24.5749 33.9611 24.5749 33.8104 24.5749C33.6747 24.4416 33.5465 24.3083 33.4183 24.175C33.2827 24.175 33.1545 24.175 33.0188 24.175C32.8454 24.3305 32.8454 24.3305 32.8002 24.3601C32.8002 24.6341 33.0867 25.0265 32.6796 25.1449C32.7098 25.367 32.7098 25.367 32.7248 25.3893C33.0716 25.2782 33.0037 25.2931 33.26 25.5522C33.26 25.604 32.6645 26.1963 32.6043 26.263C32.5213 26.2704 32.4308 26.2926 32.3479 26.3074C32.3404 26.3518 32.4157 26.4629 32.4233 26.537C32.1971 26.7813 31.7071 27.2625 31.3604 27.2625C31.1644 27.2033 30.9759 27.1515 30.7799 27.0923C30.5613 27.1219 30.3502 27.1589 30.1316 27.1885C29.9959 27.0774 29.8602 26.9663 29.7245 26.8553C29.1139 26.6776 29.1139 26.8183 28.9782 26.2556C28.8877 26.1519 28.7973 26.0556 28.7068 25.952C28.6314 25.952 28.5485 26.0038 28.4882 26.0409C28.4354 26.3444 28.3374 26.2556 28.0208 26.2778C27.9303 26.648 27.9681 26.5888 27.5836 26.6776C27.5459 27.1885 27.5459 27.1885 27.5308 27.2181C27.267 27.2552 27.0559 27.4699 26.8072 27.5513C26.4679 27.5957 26.3623 27.5069 26.3096 27.8105C26.3548 27.8549 26.4 27.8993 26.4528 27.9437C26.4528 28.0103 26.4528 28.0696 26.4528 28.1363C26.679 28.2769 26.9051 28.4176 27.1388 28.5583C27.2971 28.736 27.1765 28.7656 27.0182 28.9284C27.0332 29.047 27.1011 29.1654 27.1011 29.2838C27.071 29.2987 27.071 29.2987 26.8976 29.2913C26.8976 29.3579 26.8976 29.3579 26.9352 29.5208C27.0332 29.58 27.1313 29.6393 27.2293 29.6985C27.8248 29.7429 28.2168 30.5204 28.8727 30.1724C29.0611 30.1353 29.3476 30.2835 29.3476 30.4907C29.3174 30.5056 28.8727 30.513 28.8199 30.5278C28.8425 30.5352 28.8651 30.5352 28.8802 30.5426C28.9103 30.6092 28.9405 30.6759 28.9707 30.7425C29.0988 30.7573 29.3099 30.7647 29.4155 30.8388C29.4155 30.8462 29.4155 30.861 29.4155 30.8758C29.227 31.0387 29.227 31.0387 29.2194 31.0535C29.2646 31.0979 29.34 31.0905 29.4004 31.0979C29.4155 31.1275 29.4155 31.1275 29.4456 31.4163C29.4757 31.4163 29.5135 31.4163 29.5511 31.4163C29.5511 31.1275 29.4682 31.1275 29.7019 31.0017C29.8602 30.6685 29.9657 30.4834 30.2447 30.2316C30.2371 30.1872 30.0562 30.0465 30.0185 29.9651C30.0713 29.817 30.1843 30.0317 30.222 30.0761C30.3729 30.1428 30.5161 30.202 30.6593 30.2686C30.7347 30.4315 30.5989 30.7277 30.5537 30.8906C30.7648 30.9054 30.7572 31.0164 30.8628 31.2163C30.9608 31.2238 31.0739 31.2238 31.1719 31.2386C31.1719 31.2163 31.1794 31.1867 31.1794 31.1646C31.4207 31.0831 31.6619 30.9794 31.8956 30.8684C32.084 30.898 32.3102 31.0979 32.4761 31.2016C32.6117 31.1646 32.755 31.0979 32.8982 31.0979C32.9133 31.1201 32.9284 31.1423 32.9434 31.1646C33.0113 31.0164 33.2751 30.935 33.4183 30.861C33.4711 30.7277 33.4711 30.7277 33.5239 30.6463C33.5842 30.6463 33.5993 30.6536 33.6521 30.6833C33.7727 30.6018 33.9008 30.5204 34.0366 30.4464C34.1722 30.2242 34.3154 30.0095 34.4512 29.7948C34.3984 29.4394 34.632 29.2395 34.6471 28.8767C34.6547 28.8767 34.6547 28.8767 34.6622 28.8767C34.7376 29.1803 34.8205 29.4838 34.8959 29.7874C34.8281 29.854 34.7904 30.0095 34.7602 30.0983C34.7829 30.1353 34.813 30.1649 34.8432 30.2094C34.8582 30.0835 34.8733 29.9577 34.8884 29.8244C35.0316 29.9947 35.1447 30.861 35.1447 30.9794C35.1145 30.9868 35.0844 31.0017 35.0543 31.0164C35.0543 31.0831 35.1447 31.4459 35.0165 31.4755C35.0316 31.5051 35.0392 31.5347 35.0543 31.5644C35.205 31.5717 35.205 31.5496 35.2351 31.6828C35.2502 31.6828 35.2653 31.6828 35.2803 31.6828C35.3783 32.4307 35.4462 33.1637 35.4538 33.9189C35.0467 34.1114 35.0467 34.1114 34.6019 34.3039C34.6698 34.1484 34.7451 34.0151 34.8884 33.9263C34.7753 33.8375 34.6396 33.6746 34.4964 33.7634C34.2626 34.0966 33.7349 34.763 33.26 34.5112C33.245 34.5112 33.2299 34.5112 33.2148 34.5112C33.1772 34.5631 33.1395 34.6223 33.1017 34.6815C33.1319 34.7185 33.1545 34.7556 33.1772 34.7926C32.7399 34.9185 32.2876 35.0147 31.8504 35.1257C31.8504 35.0888 31.8428 35.0518 31.8428 35.0222C31.7825 35.0369 31.7825 35.0369 31.7146 35.0295C31.6921 34.9999 31.6921 34.9555 31.7146 34.9185C31.6543 34.8593 31.3528 34.8444 31.2624 34.8296C30.908 34.6371 30.6895 34.4816 30.2823 34.452C30.614 34.7037 30.9458 34.9555 31.2775 35.2146C30.5989 35.3035 29.9281 35.3701 29.2496 35.3997C29.2496 34.0596 29.2496 32.7194 29.2496 31.3792C29.3325 31.4015 29.4155 31.6607 29.4531 31.7421C29.815 32.1123 29.9205 32.1271 29.9054 32.6157C30.124 32.6453 30.2673 32.5418 30.305 32.3418C30.4256 32.2233 30.5989 32.5639 30.6517 32.5787C30.6969 32.2678 30.4859 32.1715 30.5462 31.8383C30.6969 31.7273 31.0136 31.5496 31.0437 31.3496C30.7422 31.3349 30.7875 31.3052 30.6517 31.0238C30.5839 31.0164 30.5236 31.0164 30.4633 31.0091C30.3954 30.898 30.5839 30.5204 30.5764 30.3427C30.4633 30.2982 30.4633 30.2982 30.3729 30.276C30.2673 30.3649 30.1542 30.4611 30.0487 30.5574C29.9432 30.7796 29.8753 31.0313 29.6567 31.1571C29.6491 31.2682 29.6491 31.3792 29.6491 31.4903C29.4229 31.7199 29.3249 31.3422 29.3174 31.2089C29.2119 31.2089 29.0913 31.1275 29.0913 31.0164C29.1365 30.9721 29.1817 30.935 29.2194 30.8906C28.9405 30.8462 28.9028 30.8831 28.8048 30.6389C28.7596 30.6314 28.7144 30.624 28.6692 30.624C28.6692 30.7055 28.6541 30.7869 28.6164 30.861C28.6616 31.1053 28.7144 31.3422 28.7596 31.5866C28.8199 31.5792 28.8802 31.5717 28.948 31.5644C28.9858 31.4903 29.031 31.4163 29.0687 31.3496C29.0913 31.3496 29.1139 31.3422 29.1365 31.3422C29.1365 32.6898 29.1441 34.0448 29.1516 35.3997C26.7166 35.3775 24.4174 34.9259 22.2086 33.8819C22.2388 32.7194 22.4876 31.5717 22.7514 30.4389C22.8343 30.3871 22.9248 30.3353 23.0153 30.2835C22.8267 29.9873 22.8946 29.8985 22.9776 29.5504C23.1132 29.5504 23.445 29.8095 23.5731 29.8836C23.7917 29.617 23.6711 29.7652 23.935 29.7652C23.8671 29.6096 23.7389 29.1728 23.5957 29.0913C23.5957 28.9803 23.754 28.8692 23.8219 28.7952C23.5581 28.5213 23.656 28.499 23.7841 28.1288C23.9274 28.0103 23.9274 28.0103 24.0933 27.8993C24.0179 27.2403 23.3319 26.8257 23.1132 26.2185C22.8267 26.0409 22.4121 26.1889 22.1483 25.952C21.9674 26.1963 21.99 26.2852 21.99 26.5888C21.9221 26.6776 21.8619 26.7591 21.8016 26.8479C21.8166 27.1737 21.8392 27.5069 21.8619 27.8401C22.0428 28.0992 22.0428 28.2769 22.0804 28.6101C22.1559 28.736 22.2313 28.8618 22.3066 28.9803C22.676 29.0988 22.8795 29.047 22.8795 29.4764C22.8419 29.6096 22.8042 29.7429 22.7665 29.8762C22.759 29.8762 22.7514 29.8762 22.7439 29.8762C22.6835 29.7874 22.6308 29.7059 22.578 29.617C22.5328 29.6615 22.4951 29.7133 22.4574 29.7578C22.5027 30.091 22.5027 30.0169 22.2388 30.3056C22.171 30.3131 22.171 30.3131 21.794 30.2612C21.8091 30.4241 21.8241 30.587 21.8392 30.7499C22.0352 30.8165 22.2237 30.8462 22.3745 30.6759C22.4348 30.6759 22.4951 30.6833 22.5629 30.6833C22.3443 31.7346 22.1559 32.7416 22.0955 33.8078C21.1985 33.371 20.3768 32.8527 19.5777 32.2456C19.638 32.2382 19.6907 32.2307 19.7511 32.2233C19.6907 31.9568 19.6305 31.6903 19.5626 31.4237C19.344 31.0979 19.0274 30.8092 18.756 30.5278C18.7937 30.7721 18.8615 30.7721 18.6731 30.9054C18.5826 31.3126 19.1706 31.9346 19.3817 32.2752C19.4119 32.2826 19.4344 32.2826 19.4647 32.2899C20.2787 32.9268 21.1684 33.4525 22.088 33.9337C22.088 34.9481 22.2011 35.955 22.8419 36.7473C19.8189 35.1332 17.4896 32.2678 16.5925 28.8471ZM34.4209 37.1323C34.534 37.0286 34.6698 36.9324 34.7527 36.8436C35.891 36.1771 36.8635 35.5552 37.8359 34.6815C38.1073 34.3779 38.8235 33.8078 38.944 33.445C38.8988 33.4006 38.9743 33.3043 38.944 33.2673C38.831 33.3414 38.8461 33.2377 38.831 33.1637C38.5973 33.5783 38.3108 34.3706 37.6927 34.3706C37.6248 34.2743 37.7907 34.1632 37.7907 34.0744C37.6625 34.1484 37.5419 34.2299 37.4213 34.3039C37.3986 34.452 37.1198 34.6223 36.9992 34.7111C36.8785 34.9407 36.6524 35.3256 36.396 35.1776C35.9438 35.3997 35.5517 35.8736 35.1899 36.2067C35.1899 36.1105 35.3407 35.8143 35.3783 35.7107C35.4764 35.3775 35.5292 34.5557 35.7403 34.3632C35.6272 34.2595 35.6347 34.1558 35.6648 34.0078C36.2981 33.682 36.9237 33.3192 37.5268 32.9342C37.4892 32.986 37.4892 32.986 37.4967 32.9934C37.6851 32.9045 37.6851 32.9045 37.7455 32.8675C37.7379 32.8527 37.7304 32.8453 37.7304 32.8305C37.655 32.8675 37.655 32.8675 37.6248 32.8675C38.5672 32.1789 39.3737 31.4385 40.1427 30.5574C40.1503 30.5574 40.1578 30.55 40.1653 30.55C40.1578 31.1127 40.1201 31.6903 39.9693 32.2307C38.6501 34.3632 36.7202 36.0735 34.4209 37.1323ZM29.3099 38.3096C29.4155 37.9468 29.3174 35.8217 29.3174 35.533C30.0487 35.496 30.7648 35.4368 31.4886 35.3405C31.7674 35.5552 32.0388 35.7107 32.4006 35.6367C32.4157 35.5404 32.4308 35.4515 32.4384 35.3553C32.3253 35.3109 32.2047 35.2739 32.0916 35.2368C32.0916 35.2294 32.0916 35.222 32.0916 35.2146C32.4912 35.1332 32.8907 35.0295 33.2827 34.9259C33.3506 34.9259 33.3656 34.9777 33.4033 35.0295C34.1647 34.8593 34.1647 34.8593 34.2174 34.8593C34.3757 34.9407 34.5491 34.6593 34.5491 34.5186C34.5944 34.4298 35.1447 34.2521 35.2653 34.2003C35.1371 34.5408 35.2578 34.4149 35.2803 34.6964C35.2879 34.6889 35.2955 34.6889 35.303 34.6815C35.303 34.4742 35.3106 34.4372 35.4085 34.2669C35.4387 34.2669 35.4689 34.2669 35.499 34.2669C35.5517 34.3706 35.4689 34.8074 35.4538 34.911C35.3558 35.3701 35.2427 35.9476 34.9562 36.3253C34.5642 36.5252 34.1722 36.725 33.7802 36.9176C33.6445 37.0657 33.6973 37.0212 33.6822 37.1693C33.6596 37.1841 33.6294 37.1989 33.6069 37.2064C33.931 37.3618 34.323 36.8657 34.5039 36.9546C34.3757 37.0731 34.2476 37.1768 34.1119 37.273C32.6344 37.9023 31.0136 38.2725 29.3099 38.3096ZM23.1887 36.9398C22.48 36.1771 22.171 35.0591 22.2765 34.03C24.2289 34.8666 26.0533 35.3405 28.1867 35.5181C28.5259 35.5181 28.8651 35.5256 29.2119 35.533C29.2119 35.8292 29.1139 37.9542 29.2496 38.3096C29.1666 38.3096 29.0838 38.3096 29.0083 38.3096C26.9127 38.317 24.93 37.8209 23.1887 36.9398Z" fill="#7B8189"/>
<path fill-rule="evenodd" clip-rule="evenodd" d="M63.6658 8.73807V22.3725H69.9873L73.5686 14.7375H73.65V22.3725H79.0626V8.73807H72.7343L69.1598 16.5301H69.0784V8.73807H63.6658Z" fill="#7B8189"/>
<path fill-rule="evenodd" clip-rule="evenodd" d="M89.5476 13.4552H85.9257V8.73807H80.5131V22.3725H85.9257V17.3479H89.5476V22.3725H94.9598V8.73807H89.5476V13.4552Z" fill="#7B8189"/>
<path fill-rule="evenodd" clip-rule="evenodd" d="M96.1418 8.73807V12.7682H100.91V22.3725H106.322V12.7682H111.091V8.73807H96.1418Z" fill="#7B8189"/>
<path fill-rule="evenodd" clip-rule="evenodd" d="M112.29 8.73807V22.3725H124.777V19.1602H117.702V17.0339H124.329V13.9197H117.702V11.9505H124.634V8.73807H112.29Z" fill="#7B8189"/>
<path fill-rule="evenodd" clip-rule="evenodd" d="M131.134 11.8915H132.307C133.311 11.9111 133.989 12.0944 134.335 12.4411C134.681 12.7878 134.843 13.1673 134.816 13.586C134.796 14.1291 134.627 14.5216 134.315 14.7637C134.002 15.0058 133.65 15.1563 133.263 15.2085C132.877 15.2675 132.564 15.2871 132.327 15.2805H131.134V11.8915ZM125.863 8.73807V22.3725H131.275V18.434H134.247C135.705 18.4143 136.879 18.1592 137.766 17.6751C138.649 17.1844 139.293 16.5759 139.687 15.8432C140.08 15.1104 140.277 14.3711 140.269 13.6253C140.277 12.7813 140.059 11.9897 139.632 11.2503C139.205 10.5111 138.534 9.90917 137.631 9.45116C136.729 8.98668 135.57 8.75115 134.152 8.73807H125.863Z" fill="#7B8189"/>
<path fill-rule="evenodd" clip-rule="evenodd" d="M150.498 11.8911H151.671C152.675 11.9107 153.354 12.0938 153.7 12.4406C154.045 12.7874 154.208 13.1668 154.181 13.5921C154.16 14.1351 153.998 14.5277 153.679 14.7697C153.367 15.0118 153.015 15.1623 152.628 15.2212C152.241 15.28 151.93 15.2997 151.692 15.2932H150.498V11.8911ZM145.228 8.73759V22.3721H150.641V18.4335H153.611C155.069 18.4139 156.243 18.1588 157.132 17.6681C158.013 17.1774 158.657 16.5689 159.051 15.8361C159.445 15.1034 159.641 14.3641 159.635 13.6183C159.635 12.7743 159.424 11.9827 158.99 11.2433C158.562 10.5041 157.898 9.90216 156.989 9.44415C156.087 8.97966 154.927 8.74413 153.51 8.73105H145.228V8.73759Z" fill="#7B8189"/>
<path fill-rule="evenodd" clip-rule="evenodd" d="M166.253 11.9701L167.724 16.2423H164.714L166.165 11.9701H166.253ZM162.672 8.73807L157.72 22.3791H163.132L164.082 19.435H168.328L169.298 22.3791H174.995L169.963 8.73807H162.672Z" fill="#7B8189"/>
<path fill-rule="evenodd" clip-rule="evenodd" d="M182.119 11.7738C182.79 11.7934 183.279 12.0158 183.591 12.441C183.903 12.8598 184.099 13.3636 184.188 13.9459C184.276 14.5282 184.31 15.0646 184.303 15.5619C184.316 16.0591 184.276 16.5955 184.188 17.1778C184.099 17.7601 183.903 18.2573 183.591 18.6826C183.279 19.1079 182.784 19.3303 182.119 19.3499C181.447 19.3303 180.959 19.1079 180.647 18.6826C180.335 18.2639 180.138 17.7601 180.051 17.1778C179.968 16.5955 179.928 16.0591 179.935 15.5619C179.922 15.0646 179.962 14.5282 180.051 13.9459C180.138 13.3636 180.335 12.8664 180.647 12.441C180.959 12.0158 181.447 11.7934 182.119 11.7738ZM182.119 8.50253C179.609 8.52215 177.669 9.15677 176.306 10.3998C174.942 11.6429 174.257 13.3636 174.237 15.5553C174.251 17.7536 174.942 19.4677 176.306 20.7108C177.669 21.9539 179.603 22.5885 182.119 22.6081C184.635 22.5885 186.568 21.9539 187.932 20.7108C189.295 19.4677 189.98 17.747 190 15.5553C189.98 13.3571 189.295 11.6429 187.932 10.3998C186.568 9.15677 184.629 8.52215 182.119 8.50253Z" fill="#7B8189"/>
<path d="M189.516 27.8508H63.6658V29.3166H189.516V27.8508Z" fill="#7B8189"/>
</g>
<defs>
<clipPath id="clip0_47_91">
<rect width="190" height="54" fill="white"/>
</clipPath>
</defs>
</svg>
