<svg width="183" height="34" viewBox="0 0 183 34" fill="none" xmlns="http://www.w3.org/2000/svg">
<g clip-path="url(#clip0_47_4)">
<path fill-rule="evenodd" clip-rule="evenodd" d="M0 0H26.8785V6.82267H0V0ZM0 26.4378H26.8785V33.2605H0V26.4378ZM23.5183 17.9095H3.36016V23.8793H23.5183V17.9095ZM3.36016 9.38117H23.5183V15.351H3.36016V9.38117ZM50.1321 0C59.9578 0 66.8809 7.27742 66.8809 16.6033C66.8809 20.3547 65.5407 23.5379 63.7544 26.2678L67.1047 28.9963L62.6367 34L59.399 30.8167C56.8299 32.521 53.7035 33.5452 50.2419 33.5452C40.305 33.5452 33.4946 26.0397 33.4946 16.4886C33.496 7.27742 40.3065 0 50.1321 0ZM50.1321 26.3812C51.2484 26.3812 52.5886 26.1545 53.5937 25.6983L50.356 22.7417L54.71 17.7395L57.8364 20.9227C58.4214 19.5979 58.7258 18.165 58.7303 16.7153C58.7303 11.3716 55.045 7.39075 50.1321 7.39075C45.1067 7.39075 41.5354 11.3716 41.5354 16.7153C41.5354 22.1737 45.1081 26.3812 50.1321 26.3812ZM78.4929 0.5695H70.676V33.0905H78.4929V19.8999H81.7306L88.4298 33.0891H97.1378L88.0948 16.2605V16.1472L96.6916 0.566667H88.3186L81.7306 13.0758H78.4929V0.566667V0.5695ZM110.203 18.5357H110.871V18.0795C110.871 16.1472 109.309 15.4643 107.634 15.4643C105.401 15.4643 103.168 16.4886 101.271 17.7395L98.5906 12.1677C100.488 10.6887 104.507 9.09642 108.304 9.09642C114.668 9.09642 118.576 12.7358 118.576 18.649V33.0905H111.541V31.7262C111.541 30.9301 111.654 30.2472 111.654 30.2472H111.541C109.979 32.4077 107.299 33.6586 104.731 33.6586C100.264 33.6586 97.2504 30.5887 97.2504 26.4945C97.1378 20.2413 104.507 18.5357 110.201 18.5357H110.203ZM106.965 27.7454C109.198 27.7454 110.871 25.4717 110.871 23.6512V22.9698H110.203C107.857 22.9698 104.842 23.6527 104.842 25.6983C104.842 26.8359 105.625 27.7454 106.964 27.7454H106.965ZM129.181 0.568083H121.366V33.3172H128.511V31.0434H128.624C130.186 32.8624 132.754 33.7719 135.099 33.7719C141.241 33.7719 145.819 28.883 145.819 21.4922C145.819 14.2134 141.687 9.20975 135.434 9.20975C133.09 9.20975 130.521 10.1207 129.181 11.7116H129.07C129.07 11.7116 129.183 10.8021 129.183 9.66592V0.566667L129.181 0.568083ZM137.891 21.6056C137.891 25.1302 135.88 27.1773 133.424 27.1773C130.41 27.1773 128.959 24.3341 128.959 21.6056C128.959 17.5114 131.08 15.8057 133.424 15.8057C136.104 15.8057 137.891 18.0795 137.891 21.6056ZM159.439 9.09642C166.251 9.09642 170.046 13.8734 170.046 20.468C170.046 21.1749 169.959 21.8804 169.861 22.6667L169.824 22.9698H155.311C155.868 25.8131 158.213 27.1773 160.67 27.1773C162.902 27.1773 165.135 26.0397 167.034 24.7888L169.937 30.2472C167.48 32.4077 163.684 33.6586 160.111 33.6586C151.849 33.6586 147.494 27.6321 147.494 21.3775C147.494 14.5548 152.072 9.09642 159.441 9.09642H159.439ZM162.455 18.4209C162.455 16.4886 161.226 14.8962 159.328 14.8962C157.096 14.8962 155.978 16.4886 155.643 18.4209H162.455ZM179.985 0.568083H172.169V24.4474C172.169 32.2943 176.525 33.3172 180.655 33.3172C181.231 33.3172 181.733 33.2803 182.162 33.2477C182.441 33.2238 182.72 33.2097 183 33.2052V26.3812H182.106C180.432 26.3812 179.985 25.6983 179.985 23.4246V0.568083Z" fill="#0A1546"/>
</g>
<defs>
<clipPath id="clip0_47_4">
<rect width="183" height="34" fill="white"/>
</clipPath>
</defs>
</svg>
