<svg width="182" height="58" viewBox="0 0 182 58" fill="none" xmlns="http://www.w3.org/2000/svg">
<path fill-rule="evenodd" clip-rule="evenodd" d="M6.74072 7.18686H51.2173V51.3028H6.74072V7.18686ZM41.8525 13.0626C42.2381 12.2543 43.0122 11.5817 44.0343 11.5817C45.3746 11.5148 46.5714 12.533 46.6739 14.0479C46.6739 14.2593 46.5683 14.9949 46.4955 15.1689L41.3234 23.5114C40.7975 24.392 40.8936 25.0619 41.1094 25.8006L48.927 45.6422H16.8539C14.0007 45.6422 11.7769 43.3564 11.7769 40.5033L11.6699 14.2603C11.7778 10.7755 16.6759 10.7737 16.8539 14.1541V38.8809C16.8539 39.6597 17.5528 40.5033 18.3996 40.5033H41.9238L35.8659 26.1487C35.6583 25.691 35.5806 25.1945 35.5806 24.6324C35.5806 24.0034 35.864 23.0533 36.2523 22.2075L41.8525 13.0626ZM28.8211 14.1541C28.8211 12.4639 30.0778 11.6018 31.3359 11.5935C32.5939 11.5851 33.8565 12.4304 33.8565 14.1541V31.9897C33.8565 36.0686 30.7965 38.7806 27.0317 38.7806C23.3667 38.7806 20.2961 36.0686 20.2961 31.9897V14.1541C20.2961 10.7737 25.3374 10.7737 25.3374 14.1541V31.8481C25.3374 34.206 28.8211 34.4175 28.8211 31.8481V14.1541Z" fill="#7B8189"/>
<path d="M59.9308 12.3711V24.0431C59.9308 26.9605 59.6315 28.5824 57.2367 28.5824C56.789 28.5824 56.4896 28.5824 56.042 28.4218V33.4455C56.9373 33.772 57.536 33.772 58.2857 33.772C65.0171 33.772 65.3165 28.7456 65.3165 25.8256V17.3975H69.2053V33.4455H74.5883V12.3711H59.9308Z" fill="#7B8189"/>
<path d="M76.3844 12.3711L83.7144 27.6108L81.023 33.4455H86.8563L95.5321 12.3711H89.6988L86.5569 21.2864L82.8164 12.3711H76.3844Z" fill="#7B8189"/>
<path d="M97.1772 33.4455H102.563V24.367L108.097 33.4455H114.976L107.35 22.5845L114.828 12.3711H108.396L102.563 21.2864V12.3711H97.1772V33.4455Z" fill="#7B8189"/>
<path d="M123.803 34.0959C130.982 34.0959 134.272 28.5824 134.272 22.9083C134.272 17.3975 130.982 11.884 123.803 11.884C116.773 11.884 113.482 17.3975 113.482 22.9083C113.482 28.5824 116.773 34.0959 123.803 34.0959ZM123.803 29.0695C121.408 29.0695 119.016 26.9604 119.016 22.9083C119.016 18.8562 121.408 16.9104 123.803 16.9104C126.346 16.9104 128.738 18.8562 128.738 22.9083C128.738 26.9604 126.346 29.0695 123.803 29.0695Z" fill="#7B8189"/>
<path d="M136.967 12.3711V33.4455H142.201L149.68 20.8019V33.4455H154.917V12.3711H149.68L142.201 25.0174V12.3711H136.967ZM146.09 11.2363C148.334 11.2363 150.578 10.4253 151.627 7.99245L148.485 6.69705C148.034 8.31898 146.689 8.47957 146.09 8.47957C145.642 8.47957 144.146 8.31898 143.846 6.69705L140.707 7.99245C141.602 10.4253 143.997 11.2363 146.09 11.2363Z" fill="#7B8189"/>
<path d="M160.602 12.3711V24.0431C160.602 26.9605 160.3 28.5824 157.908 28.5824C157.46 28.5824 157.161 28.5824 156.71 28.4218V33.4455C157.608 33.772 158.207 33.772 158.954 33.772C165.685 33.772 165.985 28.7456 165.985 25.8256V17.3975H169.874V33.4455H175.259V12.3711H160.602Z" fill="#7B8189"/>
<path d="M56.0851 45.2727H56.8429V41.3625H61.2685V45.2727H62.0263V37.6074H61.2685V40.7469H56.8429V37.6074H56.0851V45.2727Z" fill="#7B8189"/>
<path d="M63.9546 45.2727H68.105V44.6572H64.7124V41.2875H67.9702V40.6719H64.7124V38.2257H68.105V37.6074H63.9546V45.2727Z" fill="#7B8189"/>
<path d="M73.0996 45.2727H73.8493V44.2182H74.1649C76.6621 44.2182 77.695 42.7515 77.695 41.2152C77.695 39.4167 76.3547 38.2256 74.1649 38.2256H73.8493V37.3049H73.0996V38.2256H72.7948C70.5915 38.2256 69.2539 39.4167 69.2539 41.2152C69.2539 42.7515 70.2868 44.2182 72.7948 44.2182H73.0996V45.2727ZM73.8493 38.8412C76.3547 38.8733 76.9049 40.0349 76.9049 41.2152C76.9049 43.0566 75.6724 43.5357 73.8493 43.5999V38.8412ZM73.0996 43.5999C71.2765 43.5357 70.0441 43.0566 70.0441 41.2152C70.0441 40.0349 70.5915 38.8733 73.0996 38.8412V43.5999Z" fill="#7B8189"/>
<path d="M80.4323 45.2727H81.1605V38.2257H83.2155V37.6074H78.38V38.2257H80.4323V45.2727Z" fill="#7B8189"/>
<path d="M84.1109 45.2727H84.9631L87.0181 41.9058H87.6707V45.2727H88.4312V37.6074H86.6486C84.3104 37.6074 83.9733 39.1464 83.9733 39.8262C83.9733 41.1216 84.9954 41.9058 86.1982 41.8629L84.1109 45.2727ZM87.6707 41.2875H86.5758C85.9555 41.2875 84.723 41.2153 84.723 39.7512C84.723 38.33 86.0283 38.2257 86.6486 38.2257H87.6707V41.2875Z" fill="#7B8189"/>
<path d="M90.3703 45.2727H91.1281V41.3625H95.5536V45.2727H96.3114V37.6074H95.5536V40.7469H91.1281V37.6074H90.3703V45.2727Z" fill="#7B8189"/>
<path d="M97.4171 45.2727H98.1777L99.2402 42.7836H102.495L103.561 45.2727H104.318L100.853 37.4093L97.4171 45.2727ZM99.5153 42.1788L100.853 39.042L102.223 42.1788H99.5153Z" fill="#7B8189"/>
<path d="M105.195 45.2727H106.047L108.102 41.9058H108.755V45.2727H109.513V37.6074H107.733C105.394 37.6074 105.057 39.1464 105.057 39.8262C105.057 41.1216 106.079 41.9058 107.28 41.8629L105.195 45.2727ZM108.755 41.2875H107.66C107.037 41.2875 105.804 41.2153 105.804 39.7512C105.804 38.33 107.112 38.2257 107.733 38.2257H108.755V41.2875Z" fill="#7B8189"/>
<path d="M114.014 45.2727H114.771V41.5605L118.237 45.2727H119.227L115.486 41.3196L119.165 37.6074H118.237L114.771 41.1831V37.6074H114.014V45.2727Z" fill="#7B8189"/>
<path d="M124.116 45.5136C126.414 45.5136 128.299 43.873 128.299 41.4561C128.299 39.042 126.414 37.4093 124.116 37.4093C121.851 37.4093 119.966 39.042 119.966 41.4561C119.966 43.873 121.851 45.5136 124.116 45.5136ZM124.116 44.8659C122.231 44.8659 120.756 43.4635 120.756 41.4561C120.756 39.4488 122.231 38.0169 124.116 38.0169C126.004 38.0169 127.509 39.4488 127.509 41.4561C127.509 43.4635 126.004 44.8659 124.116 44.8659Z" fill="#7B8189"/>
<path d="M129.343 45.2727H130.071L130.785 39.6147L133.631 45.618L136.443 39.6147L137.204 45.2727H137.886L136.824 37.3049L133.631 44.154L130.405 37.3049L129.343 45.2727Z" fill="#7B8189"/>
<path d="M139.31 37.6074V45.2727H140.068V38.2257H144.494V45.2727H145.251V37.6074H139.31Z" fill="#7B8189"/>
<path d="M146.36 45.2727H147.118L148.18 42.7836H151.438L152.5 45.2727H153.258L149.793 37.4093L146.36 45.2727ZM148.455 42.1788L149.793 39.042L151.163 42.1788H148.455Z" fill="#7B8189"/>
<path d="M154.334 45.2727H155.092V41.3625H159.518V45.2727H160.278V37.6074H159.518V40.7469H155.092V37.6074H154.334V45.2727Z" fill="#7B8189"/>
<path d="M162.204 37.6074V45.618L167.495 39.2079V45.2727H168.242V37.3049L162.964 43.6722V37.6074H162.204Z" fill="#7B8189"/>
<path d="M169.949 45.2727H170.801L172.856 41.9058H173.509V45.2727H174.27V37.6074H172.49C170.149 37.6074 169.812 39.1464 169.812 39.8262C169.812 41.1216 170.834 41.9058 172.037 41.8629L169.949 45.2727ZM173.509 41.2875H172.414C171.794 41.2875 170.561 41.2153 170.561 39.7512C170.561 38.33 171.867 38.2257 172.49 38.2257H173.509V41.2875Z" fill="#7B8189"/>
</svg>
