<svg width="144" height="75" viewBox="0 0 144 75" fill="none" xmlns="http://www.w3.org/2000/svg">
<path d="M56.9734 36.0804H71.0244V26.3752H56.9734V36.0804Z" fill="#7B8189"/>
<path d="M56.9734 16.0936H71.0244V6.3884H56.9734V16.0936Z" fill="#7B8189"/>
<path d="M72.926 16.0936H86.9769V6.3884H72.926V16.0936Z" fill="#7B8189"/>
<path d="M72.926 36.0804H86.9769V26.3752H72.926V36.0804Z" fill="#7B8189"/>
<path d="M90.4104 25.586C89.1427 27.9976 86.343 28.1988 83.0891 28.1988L54.8922 28.203C53.0857 28.203 50.8777 28.2229 49.0078 29.0174C49.1874 28.5562 49.3881 28.0301 49.5994 27.4631H49.6099C50.846 25.0588 53.5083 24.8681 56.8572 24.8681L85.0542 24.8597C86.7867 24.8597 89.0581 24.8586 90.9915 24.0222C90.7168 24.7811 90.4315 25.5179 90.4104 25.586Z" fill="#7B8189"/>
<path d="M92.3965 20.2953C91.1394 22.7069 88.3397 22.9113 85.0753 22.9113L56.8784 22.9186C55.0824 22.9186 52.8744 22.9302 51.0045 23.7298C51.1841 23.2634 51.3848 22.7447 51.5961 22.1724V22.1745C52.8427 19.7702 55.505 19.5784 58.8539 19.5784L87.0509 19.5732C88.7835 19.5732 91.0548 19.5658 92.9882 18.7305C92.7029 19.4914 92.4282 20.2324 92.3965 20.2953Z" fill="#7B8189"/>
<path d="M94.3933 15.0046C93.1255 17.4194 90.3364 17.6206 87.072 17.6206L58.8751 17.6259C57.0791 17.6259 54.8711 17.6426 53.0012 18.4423C53.1808 17.9791 53.3709 17.454 53.5928 16.8859V16.888C54.8394 14.4806 57.4911 14.293 60.8401 14.293L89.0476 14.2815C90.7696 14.2815 93.0516 14.2783 94.9849 13.4451C94.6891 14.206 94.4249 14.9386 94.3933 15.0046Z" fill="#7B8189"/>
<path d="M17.3435 51.5363H23.8217V68.3233H17.3435V62.1344H13.0184V68.3233H6.54546V51.5363H13.0184V57.3395H17.3435V51.5363Z" fill="#7B8189"/>
<path d="M34.9357 55.279C37.3867 55.279 37.5452 58.178 37.5452 59.9314C37.5452 61.6817 37.3867 64.5807 34.9357 64.5807C32.4953 64.5807 32.3262 61.6817 32.3262 59.9314C32.3262 58.178 32.4953 55.279 34.9357 55.279ZM34.9357 51.2534C28.9667 51.2534 25.5163 54.582 25.5163 59.9314C25.5163 65.2776 28.9667 68.6116 34.9357 68.6116C40.9047 68.6116 44.3699 65.2776 44.3699 59.9314C44.3699 54.582 40.9047 51.2534 34.9357 51.2534Z" fill="#7B8189"/>
<path d="M52.1982 54.9426H53.8675C55.6529 54.9426 56.1705 55.8533 56.1705 56.5482C56.1705 57.0335 55.9381 58.178 53.7196 58.178H52.1982V54.9426ZM46.0602 51.5363V68.3233H55.8853C58.0405 68.3233 62.8791 68.0812 62.8791 63.8386C62.8791 61.1996 60.745 60.0959 59.0547 59.8612V59.7585C61.1676 59.3749 62.4882 57.8174 62.4882 55.9005C62.4882 54.342 61.5268 51.5363 56.2339 51.5363H46.0602ZM52.1982 61.4888H53.6984C54.2583 61.4888 56.2551 61.4888 56.2551 63.1867C56.2551 63.7946 55.917 64.9171 53.8358 64.9171H52.1982V61.4888Z" fill="#7B8189"/>
<path d="M73.581 55.519L75.3453 60.7688H71.7428L73.4859 55.519H73.581ZM69.3023 51.5363L63.3862 68.3233H69.8623L70.9927 64.6991H76.0742L77.2363 68.3233H84.0505L78.0287 51.5363H69.3023Z" fill="#7B8189"/>
<path d="M99.7812 51.5363V56.5063H94.0763V68.3233H87.6002V56.5063H81.9059V51.5363H99.7812Z" fill="#7B8189"/>
<path d="M110.314 58.1067C110.029 57.2421 109.163 55.4457 105.898 55.4457C105.317 55.4457 103.722 55.5431 102.105 56.2129V51.7764L102.465 51.703C104.472 51.2984 105.824 51.2534 106.786 51.2534C115.396 51.2534 117.065 56.6478 117.065 59.9314C117.065 64.1258 114.202 68.6116 106.965 68.6116C105.169 68.6116 103.437 68.2699 102.105 67.9377V63.4802C104.102 64.2464 105.75 64.2464 106.046 64.2464C109.49 64.2464 110.198 61.972 110.314 61.5371H104.472V58.1067H110.314Z" fill="#7B8189"/>
<path d="M125.474 58.1308H125.569L129.552 51.5363H136.926L131.221 59.4042L137.455 68.3233H129.721L125.569 61.1996H125.474V68.3233H118.998V51.5363H125.474V58.1308Z" fill="#7B8189"/>
</svg>
