<svg width="44" height="62" viewBox="0 0 44 62" fill="none" xmlns="http://www.w3.org/2000/svg">
<path fill-rule="evenodd" clip-rule="evenodd" d="M0 18.1255H5.48991V36.4608L0 31.6871V18.1255Z" fill="#7B8189"/>
<path fill-rule="evenodd" clip-rule="evenodd" d="M6.56147 12.0861H11.8312V42.399L6.56147 37.4083V12.0861Z" fill="#7B8189"/>
<path fill-rule="evenodd" clip-rule="evenodd" d="M12.9101 6.03943H18.2899V34.7683H12.9101V6.03943Z" fill="#7B8189"/>
<path fill-rule="evenodd" clip-rule="evenodd" d="M19.3615 0H24.9541V28.8301H19.3615V0Z" fill="#7B8189"/>
<path fill-rule="evenodd" clip-rule="evenodd" d="M25.7101 5.72119H31.0899V34.7683H25.7101V5.72119Z" fill="#7B8189"/>
<path fill-rule="evenodd" clip-rule="evenodd" d="M32.3816 11.9704H37.6514V37.307L32.3816 42.399V11.9704Z" fill="#7B8189"/>
<path fill-rule="evenodd" clip-rule="evenodd" d="M38.6128 18.017H44V31.2676L38.6128 36.4608V18.017Z" fill="#7B8189"/>
<path fill-rule="evenodd" clip-rule="evenodd" d="M12.9101 35.4048H18.2899V62H12.9101V35.4048Z" fill="#7B8189"/>
<path fill-rule="evenodd" clip-rule="evenodd" d="M19.3615 29.6836H24.6312V62H19.3615V29.6836Z" fill="#7B8189"/>
<path fill-rule="evenodd" clip-rule="evenodd" d="M25.7101 35.5061H31.0899V62H25.7101V35.5061Z" fill="#7B8189"/>
</svg>
