<svg width="186" height="62" viewBox="0 0 186 62" fill="none" xmlns="http://www.w3.org/2000/svg">
<g clip-path="url(#clip0_47_84)">
<path d="M45.6059 29.1003C45.6059 29.1003 46.3176 21.0821 46.3899 20.2971C46.411 19.8407 46.3394 19.3847 46.1794 18.9564C46.0193 18.528 45.7741 18.1361 45.4584 17.8039C45.1427 17.4718 44.7629 17.2061 44.3417 17.0229C43.9204 16.8397 43.4664 16.7426 43.0066 16.7375H22.6401C21.7012 16.6728 20.7744 16.9779 20.06 17.5868C19.3456 18.1957 18.9011 19.0595 18.8225 19.9915C18.7321 20.9323 17.0434 40.3186 16.9409 41.4332C16.8807 41.9079 16.9218 42.3898 17.0614 42.8477C17.2009 43.3056 17.4359 43.7292 17.751 44.0909C18.0662 44.4527 18.4544 44.7444 18.8904 44.9473C19.3265 45.1502 19.8006 45.2596 20.282 45.2685H40.5279C43.2177 45.2685 44.261 43.8542 44.4902 41.6729C44.6289 40.3665 45.2923 32.4742 45.2923 32.4742H33.0495L32.5248 38.5747H29.4249L30.7578 23.4313H33.8577L33.3631 29.1003H45.6059Z" fill="#7B8189"/>
<path d="M64.4948 19.1765C64.0606 20.423 60.4963 31.5034 60.4963 31.5034L62.0824 16.7255H49.8457L47.2825 45.2685H56.5038C58.8197 45.2685 59.6098 43.9621 59.9957 42.9134C60.4601 41.6669 63.8555 32.3424 63.8555 32.3424L62.6071 45.2685H74.8499L77.3708 16.7375H67.7636C67.0251 16.7322 66.3053 16.9679 65.7147 17.4086C65.1242 17.8492 64.6956 18.4703 64.4948 19.1765Z" fill="#7B8189"/>
<path d="M126.505 16.7375L125.359 29.7475H122.253L123.399 16.7375H111.162C111.162 16.7375 109.986 30.5206 109.859 31.845C109.715 33.433 110.619 35.6803 113.327 35.6803H124.84L124.587 38.5747H109.268L108.665 45.2685H133.024C134.677 45.2685 136.269 44.1958 136.486 41.9066C136.625 40.4384 138.73 16.7375 138.73 16.7375H126.505Z" fill="#7B8189"/>
<path d="M158.445 16.7435H141.823L139.315 45.2685H151.551L152.329 36.4413H164.222C166.327 36.4413 167.72 35.3746 167.949 32.9296C168.034 31.9768 169.005 21.166 169.065 20.2132C169.216 18.1038 167.527 16.7435 165.447 16.7435H158.445ZM152.854 30.5266L153.457 23.4493H156.527L155.924 30.5266H152.854Z" fill="#7B8189"/>
<path d="M91.8873 26.3197L92.1466 23.4313H107.477L108.08 16.7375H80.4889L77.98 45.2625H102.405C103.961 45.2625 105.644 44.3516 105.861 41.9666C106.024 40.1688 106.778 31.6952 106.916 30.155C107.097 28.0996 105.783 26.3197 103.207 26.3197H91.8873ZM93.8655 39.3298H90.7414L91.3445 32.2585H94.4625L93.8655 39.3298Z" fill="#7B8189"/>
</g>
<defs>
<clipPath id="clip0_47_84">
<rect width="186" height="62" fill="white"/>
</clipPath>
</defs>
</svg>
