<svg width="18" height="20" viewBox="0 0 18 20" fill="none" xmlns="http://www.w3.org/2000/svg">
<path fill-rule="evenodd" clip-rule="evenodd" d="M17.5 5.625V17.5C17.5 18.163 17.2366 18.7989 16.7678 19.2678C16.2989 19.7366 15.663 20 15 20V18.75C15.3315 18.75 15.6495 18.6183 15.8839 18.3839C16.1183 18.1495 16.25 17.8315 16.25 17.5V5.625H13.75C13.2527 5.625 12.7758 5.42746 12.4242 5.07583C12.0725 4.72419 11.875 4.24728 11.875 3.75V1.25H5C4.66848 1.25 4.35054 1.3817 4.11612 1.61612C3.8817 1.85054 3.75 2.16848 3.75 2.5V13.75H2.5V2.5C2.5 1.83696 2.76339 1.20107 3.23223 0.732233C3.70107 0.263392 4.33696 0 5 0L11.875 0L17.5 5.625ZM4.40875 14.8125H3.2925L2.26375 16.6112H2.21875L1.17875 14.8125H0.015L1.54875 17.2913L0 19.8125H1.07625L2.1425 18.0438H2.18625L3.24875 19.8125H4.38375L2.81625 17.3225L4.40875 14.8137V14.8125ZM5.60125 19.8113V16.4862H5.64875L6.83875 19.185H7.48375L8.66625 16.485H8.71375V19.8113H9.6075V14.8125H8.6075L7.1825 18.0575H7.15125L5.725 14.8125H4.7175V19.8113H5.6H5.60125ZM11.4888 18.9688H13.6088V19.8113H10.5V14.8125H11.4888V18.9688Z" fill="#25CA99"/>
</svg>
